<svg id="visual" viewBox="0 0 900 450" width="900" height="450" xmlns="http://www.w3.org/2000/svg" xmlns:xlink="http://www.w3.org/1999/xlink" version="1.1"><rect x="0" y="0" width="900" height="450" fill="#000000"></rect><g transform="translate(432.21903728816454 227.8217054307604)"><path d="M115.9 -200.8C138.9 -187.6 138.3 -133.5 152.5 -93.3C166.8 -53 195.9 -26.5 210.6 8.5C225.3 43.5 225.7 87 203 112.7C180.4 138.4 134.7 146.3 97 142.1C59.3 137.9 29.7 121.7 -8.6 136.6C-46.9 151.5 -93.8 197.5 -126.1 198.6C-158.4 199.7 -176.2 155.9 -170.8 115.3C-165.3 74.7 -136.7 37.3 -143.6 -4C-150.5 -45.3 -193 -90.7 -184.2 -106.5C-175.4 -122.4 -115.2 -108.8 -75.9 -112.7C-36.7 -116.5 -18.3 -137.8 14.1 -162.1C46.5 -186.5 93 -214.1 115.9 -200.8" fill="#da4167"></path></g></svg>