<svg id="visual" viewBox="0 0 1920 400" width="1920" height="400" xmlns="http://www.w3.org/2000/svg" xmlns:xlink="http://www.w3.org/1999/xlink" version="1.1"><rect x="0" y="0" width="1920" height="400" fill="#3d2645"></rect><g fill="#98b9f2"><circle r="16" cx="212" cy="261"></circle><circle r="1" cx="956" cy="68"></circle><circle r="2" cx="1768" cy="55"></circle><circle r="13" cx="1399" cy="225"></circle><circle r="2" cx="1716" cy="148"></circle><circle r="13" cx="405" cy="215"></circle><circle r="0" cx="1024" cy="225"></circle><circle r="9" cx="771" cy="72"></circle><circle r="9" cx="1546" cy="155"></circle><circle r="8" cx="1304" cy="362"></circle><circle r="8" cx="1525" cy="67"></circle><circle r="1" cx="1439" cy="185"></circle><circle r="9" cx="1633" cy="121"></circle><circle r="8" cx="1387" cy="68"></circle><circle r="9" cx="528" cy="19"></circle><circle r="1" cx="346" cy="374"></circle><circle r="14" cx="1173" cy="197"></circle><circle r="9" cx="199" cy="306"></circle><circle r="13" cx="1134" cy="241"></circle><circle r="13" cx="1864" cy="306"></circle><circle r="10" cx="932" cy="334"></circle><circle r="12" cx="58" cy="276"></circle><circle r="5" cx="928" cy="274"></circle><circle r="7" cx="334" cy="295"></circle><circle r="13" cx="483" cy="78"></circle><circle r="3" cx="1501" cy="157"></circle><circle r="13" cx="458" cy="180"></circle><circle r="13" cx="1524" cy="384"></circle><circle r="9" cx="708" cy="377"></circle><circle r="8" cx="278" cy="257"></circle><circle r="9" cx="330" cy="177"></circle><circle r="5" cx="714" cy="28"></circle><circle r="1" cx="556" cy="375"></circle><circle r="12" cx="65" cy="200"></circle><circle r="13" cx="232" cy="35"></circle><circle r="2" cx="124" cy="159"></circle><circle r="11" cx="1762" cy="98"></circle><circle r="11" cx="162" cy="317"></circle><circle r="11" cx="1260" cy="169"></circle><circle r="6" cx="954" cy="132"></circle><circle r="1" cx="1609" cy="265"></circle><circle r="11" cx="1025" cy="292"></circle><circle r="7" cx="596" cy="65"></circle><circle r="14" cx="1475" cy="67"></circle><circle r="10" cx="1571" cy="88"></circle><circle r="11" cx="850" cy="75"></circle><circle r="12" cx="1349" cy="89"></circle><circle r="2" cx="1247" cy="370"></circle><circle r="3" cx="435" cy="131"></circle><circle r="14" cx="429" cy="43"></circle><circle r="0" cx="767" cy="115"></circle><circle r="5" cx="308" cy="320"></circle><circle r="9" cx="1340" cy="359"></circle><circle r="1" cx="1069" cy="376"></circle><circle r="6" cx="145" cy="206"></circle><circle r="10" cx="318" cy="48"></circle><circle r="9" cx="1782" cy="345"></circle><circle r="5" cx="153" cy="366"></circle><circle r="0" cx="362" cy="46"></circle><circle r="3" cx="489" cy="301"></circle><circle r="10" cx="363" cy="274"></circle><circle r="12" cx="778" cy="153"></circle><circle r="4" cx="1487" cy="350"></circle><circle r="12" cx="1468" cy="215"></circle><circle r="11" cx="650" cy="152"></circle><circle r="13" cx="863" cy="129"></circle><circle r="4" cx="689" cy="95"></circle><circle r="7" cx="488" cy="257"></circle><circle r="9" cx="1015" cy="87"></circle><circle r="14" cx="1256" cy="50"></circle><circle r="3" cx="1557" cy="281"></circle><circle r="3" cx="548" cy="299"></circle><circle r="10" cx="531" cy="335"></circle><circle r="13" cx="548" cy="178"></circle><circle r="1" cx="1277" cy="116"></circle><circle r="3" cx="518" cy="379"></circle><circle r="9" cx="1430" cy="25"></circle><circle r="0" cx="25" cy="164"></circle><circle r="13" cx="740" cy="197"></circle><circle r="0" cx="1855" cy="60"></circle><circle r="12" cx="1059" cy="55"></circle><circle r="2" cx="288" cy="219"></circle><circle r="0" cx="268" cy="166"></circle><circle r="11" cx="1191" cy="316"></circle><circle r="14" cx="1258" cy="298"></circle><circle r="7" cx="1891" cy="215"></circle><circle r="2" cx="1372" cy="340"></circle><circle r="2" cx="1200" cy="155"></circle><circle r="11" cx="48" cy="118"></circle><circle r="10" cx="1143" cy="360"></circle><circle r="8" cx="186" cy="381"></circle><circle r="12" cx="1412" cy="152"></circle><circle r="10" cx="1658" cy="39"></circle><circle r="3" cx="1708" cy="112"></circle><circle r="4" cx="43" cy="231"></circle><circle r="3" cx="1101" cy="126"></circle><circle r="10" cx="1819" cy="124"></circle><circle r="11" cx="52" cy="367"></circle><circle r="12" cx="1341" cy="25"></circle><circle r="9" cx="525" cy="145"></circle><circle r="5" cx="355" cy="98"></circle><circle r="6" cx="1519" cy="344"></circle><circle r="1" cx="1209" cy="358"></circle><circle r="1" cx="495" cy="124"></circle><circle r="7" cx="955" cy="231"></circle><circle r="10" cx="1455" cy="98"></circle><circle r="13" cx="1205" cy="204"></circle><circle r="14" cx="1723" cy="243"></circle><circle r="1" cx="893" cy="34"></circle><circle r="14" cx="1436" cy="225"></circle><circle r="1" cx="285" cy="377"></circle><circle r="14" cx="252" cy="123"></circle><circle r="12" cx="1279" cy="198"></circle><circle r="6" cx="1008" cy="367"></circle><circle r="5" cx="174" cy="280"></circle><circle r="6" cx="981" cy="40"></circle><circle r="12" cx="1419" cy="280"></circle><circle r="2" cx="439" cy="324"></circle><circle r="8" cx="303" cy="147"></circle><circle r="2" cx="207" cy="152"></circle><circle r="1" cx="1196" cy="57"></circle><circle r="11" cx="615" cy="136"></circle><circle r="9" cx="1692" cy="300"></circle><circle r="0" cx="835" cy="252"></circle><circle r="12" cx="887" cy="271"></circle><circle r="9" cx="1731" cy="372"></circle><circle r="5" cx="1654" cy="227"></circle><circle r="0" cx="196" cy="70"></circle><circle r="3" cx="92" cy="226"></circle><circle r="14" cx="893" cy="356"></circle><circle r="13" cx="989" cy="219"></circle><circle r="12" cx="1810" cy="177"></circle><circle r="9" cx="1460" cy="298"></circle><circle r="13" cx="510" cy="196"></circle><circle r="12" cx="1882" cy="353"></circle><circle r="8" cx="18" cy="342"></circle><circle r="11" cx="104" cy="188"></circle><circle r="11" cx="468" cy="377"></circle><circle r="13" cx="422" cy="93"></circle><circle r="6" cx="299" cy="182"></circle><circle r="8" cx="780" cy="301"></circle><circle r="0" cx="125" cy="335"></circle><circle r="12" cx="817" cy="150"></circle><circle r="1" cx="1494" cy="104"></circle><circle r="5" cx="1574" cy="41"></circle><circle r="2" cx="968" cy="299"></circle><circle r="14" cx="77" cy="336"></circle><circle r="7" cx="1731" cy="28"></circle><circle r="3" cx="1595" cy="316"></circle><circle r="6" cx="1356" cy="138"></circle><circle r="9" cx="1076" cy="190"></circle><circle r="9" cx="386" cy="345"></circle><circle r="12" cx="1120" cy="311"></circle><circle r="7" cx="1864" cy="263"></circle><circle r="3" cx="1288" cy="271"></circle><circle r="1" cx="1321" cy="309"></circle><circle r="11" cx="1822" cy="36"></circle><circle r="11" cx="410" cy="304"></circle><circle r="3" cx="1791" cy="147"></circle><circle r="14" cx="600" cy="17"></circle><circle r="9" cx="612" cy="354"></circle><circle r="2" cx="188" cy="221"></circle><circle r="12" cx="817" cy="378"></circle><circle r="6" cx="1101" cy="59"></circle><circle r="6" cx="573" cy="121"></circle><circle r="1" cx="1889" cy="166"></circle><circle r="3" cx="285" cy="78"></circle><circle r="8" cx="1834" cy="335"></circle><circle r="1" cx="1583" cy="245"></circle><circle r="13" cx="1653" cy="86"></circle><circle r="8" cx="1433" cy="74"></circle><circle r="1" cx="665" cy="354"></circle><circle r="6" cx="911" cy="244"></circle><circle r="5" cx="1213" cy="255"></circle><circle r="14" cx="1341" cy="264"></circle><circle r="4" cx="1413" cy="343"></circle><circle r="13" cx="1012" cy="145"></circle><circle r="8" cx="566" cy="263"></circle><circle r="2" cx="108" cy="42"></circle><circle r="5" cx="947" cy="21"></circle><circle r="11" cx="1124" cy="187"></circle><circle r="1" cx="1459" cy="382"></circle><circle r="10" cx="1652" cy="280"></circle><circle r="2" cx="163" cy="116"></circle><circle r="3" cx="773" cy="239"></circle><circle r="13" cx="1062" cy="237"></circle><circle r="1" cx="287" cy="20"></circle><circle r="8" cx="1110" cy="374"></circle><circle r="7" cx="1069" cy="153"></circle><circle r="6" cx="1320" cy="125"></circle><circle r="8" cx="1005" cy="330"></circle><circle r="2" cx="110" cy="109"></circle><circle r="10" cx="66" cy="79"></circle><circle r="13" cx="624" cy="229"></circle><circle r="2" cx="725" cy="230"></circle><circle r="1" cx="1726" cy="62"></circle><circle r="6" cx="1120" cy="27"></circle><circle r="6" cx="750" cy="283"></circle><circle r="10" cx="929" cy="177"></circle><circle r="0" cx="645" cy="26"></circle><circle r="1" cx="695" cy="242"></circle><circle r="9" cx="974" cy="96"></circle><circle r="1" cx="1838" cy="156"></circle><circle r="5" cx="497" cy="341"></circle><circle r="10" cx="135" cy="260"></circle><circle r="14" cx="695" cy="280"></circle><circle r="5" cx="435" cy="265"></circle><circle r="6" cx="906" cy="66"></circle><circle r="0" cx="594" cy="159"></circle><circle r="0" cx="1826" cy="87"></circle><circle r="13" cx="720" cy="172"></circle><circle r="6" cx="851" cy="331"></circle><circle r="0" cx="1607" cy="164"></circle><circle r="12" cx="1299" cy="167"></circle><circle r="7" cx="1388" cy="272"></circle><circle r="14" cx="853" cy="377"></circle><circle r="2" cx="1757" cy="196"></circle><circle r="9" cx="634" cy="70"></circle><circle r="11" cx="1331" cy="233"></circle><circle r="1" cx="27" cy="51"></circle><circle r="13" cx="995" cy="279"></circle><circle r="9" cx="1747" cy="141"></circle><circle r="7" cx="1598" cy="208"></circle><circle r="9" cx="283" cy="290"></circle><circle r="2" cx="1191" cy="93"></circle><circle r="6" cx="799" cy="115"></circle><circle r="3" cx="1863" cy="130"></circle><circle r="5" cx="835" cy="16"></circle><circle r="1" cx="860" cy="225"></circle><circle r="5" cx="352" cy="328"></circle><circle r="0" cx="1719" cy="319"></circle><circle r="0" cx="182" cy="174"></circle><circle r="11" cx="586" cy="221"></circle><circle r="9" cx="1634" cy="348"></circle><circle r="3" cx="1001" cy="184"></circle><circle r="2" cx="1429" cy="374"></circle><circle r="9" cx="1366" cy="237"></circle><circle r="9" cx="876" cy="181"></circle><circle r="9" cx="1139" cy="130"></circle><circle r="5" cx="1086" cy="271"></circle><circle r="3" cx="1045" cy="132"></circle><circle r="3" cx="385" cy="134"></circle><circle r="1" cx="1333" cy="184"></circle><circle r="6" cx="1293" cy="332"></circle><circle r="14" cx="360" cy="185"></circle><circle r="9" cx="826" cy="199"></circle><circle r="0" cx="1784" cy="299"></circle><circle r="6" cx="531" cy="256"></circle><circle r="4" cx="230" cy="318"></circle><circle r="13" cx="1107" cy="218"></circle><circle r="10" cx="147" cy="59"></circle><circle r="12" cx="932" cy="91"></circle><circle r="14" cx="29" cy="305"></circle><circle r="14" cx="217" cy="382"></circle><circle r="2" cx="1067" cy="332"></circle><circle r="10" cx="1555" cy="115"></circle><circle r="0" cx="1860" cy="94"></circle><circle r="13" cx="549" cy="100"></circle><circle r="0" cx="571" cy="322"></circle><circle r="3" cx="1493" cy="278"></circle><circle r="6" cx="265" cy="50"></circle><circle r="3" cx="1698" cy="29"></circle><circle r="2" cx="1503" cy="200"></circle><circle r="12" cx="778" cy="335"></circle><circle r="14" cx="239" cy="82"></circle><circle r="14" cx="1763" cy="258"></circle><circle r="6" cx="1902" cy="54"></circle><circle r="13" cx="1549" cy="204"></circle><circle r="1" cx="672" cy="57"></circle><circle r="12" cx="1545" cy="250"></circle><circle r="13" cx="1187" cy="232"></circle><circle r="8" cx="1895" cy="304"></circle><circle r="13" cx="259" cy="354"></circle><circle r="14" cx="1315" cy="92"></circle><circle r="10" cx="1253" cy="230"></circle><circle r="10" cx="450" cy="75"></circle><circle r="8" cx="664" cy="297"></circle><circle r="11" cx="1856" cy="193"></circle><circle r="14" cx="1227" cy="21"></circle><circle r="6" cx="730" cy="118"></circle><circle r="14" cx="1784" cy="220"></circle><circle r="2" cx="1675" cy="178"></circle><circle r="11" cx="770" cy="375"></circle><circle r="13" cx="1295" cy="17"></circle><circle r="11" cx="1599" cy="124"></circle><circle r="14" cx="245" cy="268"></circle><circle r="10" cx="1147" cy="99"></circle><circle r="4" cx="1367" cy="182"></circle><circle r="14" cx="418" cy="382"></circle><circle r="4" cx="1482" cy="19"></circle><circle r="7" cx="790" cy="270"></circle><circle r="11" cx="311" cy="357"></circle><circle r="7" cx="386" cy="241"></circle><circle r="1" cx="1187" cy="383"></circle><circle r="5" cx="601" cy="294"></circle><circle r="1" cx="1556" cy="327"></circle><circle r="11" cx="1081" cy="21"></circle><circle r="11" cx="488" cy="30"></circle><circle r="12" cx="181" cy="27"></circle><circle r="9" cx="59" cy="31"></circle><circle r="13" cx="550" cy="54"></circle><circle r="9" cx="964" cy="342"></circle><circle r="4" cx="297" cy="112"></circle><circle r="12" cx="1699" cy="371"></circle><circle r="12" cx="648" cy="209"></circle><circle r="14" cx="697" cy="139"></circle><circle r="3" cx="103" cy="307"></circle><circle r="5" cx="1901" cy="247"></circle><circle r="9" cx="1705" cy="196"></circle><circle r="12" cx="606" cy="106"></circle><circle r="4" cx="1835" cy="285"></circle><circle r="13" cx="1897" cy="129"></circle><circle r="1" cx="1557" cy="379"></circle><circle r="5" cx="1452" cy="129"></circle><circle r="3" cx="1751" cy="227"></circle><circle r="0" cx="1633" cy="187"></circle><circle r="8" cx="1015" cy="30"></circle><circle r="14" cx="333" cy="122"></circle><circle r="5" cx="1893" cy="94"></circle><circle r="11" cx="397" cy="61"></circle><circle r="8" cx="967" cy="260"></circle><circle r="3" cx="1531" cy="303"></circle><circle r="4" cx="397" cy="23"></circle><circle r="3" cx="652" cy="119"></circle><circle r="8" cx="1377" cy="380"></circle><circle r="12" cx="1075" cy="97"></circle><circle r="5" cx="1788" cy="20"></circle><circle r="6" cx="1161" cy="65"></circle><circle r="5" cx="268" cy="324"></circle><circle r="11" cx="1821" cy="215"></circle><circle r="14" cx="1452" cy="268"></circle><circle r="2" cx="1354" cy="302"></circle><circle r="3" cx="478" cy="212"></circle><circle r="13" cx="1400" cy="117"></circle><circle r="12" cx="891" cy="105"></circle><circle r="4" cx="1237" cy="97"></circle><circle r="2" cx="1681" cy="249"></circle><circle r="0" cx="686" cy="169"></circle><circle r="6" cx="1850" cy="20"></circle><circle r="6" cx="518" cy="78"></circle><circle r="14" cx="1172" cy="29"></circle><circle r="3" cx="721" cy="338"></circle><circle r="13" cx="209" cy="100"></circle><circle r="13" cx="224" cy="189"></circle><circle r="4" cx="1494" cy="245"></circle><circle r="9" cx="952" cy="379"></circle><circle r="2" cx="810" cy="320"></circle><circle r="12" cx="1152" cy="323"></circle><circle r="1" cx="1145" cy="281"></circle><circle r="12" cx="1676" cy="348"></circle><circle r="11" cx="1577" cy="180"></circle><circle r="5" cx="261" cy="197"></circle><circle r="6" cx="842" cy="287"></circle><circle r="7" cx="644" cy="261"></circle><circle r="1" cx="1100" cy="336"></circle><circle r="7" cx="69" cy="149"></circle><circle r="4" cx="1602" cy="377"></circle><circle r="1" cx="1859" cy="229"></circle><circle r="6" cx="347" cy="221"></circle><circle r="9" cx="1800" cy="269"></circle><circle r="10" cx="900" cy="209"></circle><circle r="2" cx="806" cy="36"></circle><circle r="14" cx="921" cy="135"></circle><circle r="10" cx="1659" cy="151"></circle><circle r="8" cx="643" cy="330"></circle><circle r="1" cx="685" cy="321"></circle><circle r="2" cx="1234" cy="129"></circle><circle r="3" cx="795" cy="196"></circle><circle r="6" cx="1904" cy="377"></circle><circle r="6" cx="1752" cy="318"></circle><circle r="0" cx="1689" cy="82"></circle><circle r="9" cx="164" cy="242"></circle><circle r="7" cx="961" cy="197"></circle><circle r="0" cx="1721" cy="275"></circle><circle r="7" cx="1673" cy="119"></circle><circle r="1" cx="716" cy="67"></circle><circle r="9" cx="1295" cy="63"></circle><circle r="3" cx="1825" cy="367"></circle><circle r="9" cx="976" cy="160"></circle><circle r="6" cx="1040" cy="189"></circle><circle r="13" cx="1792" cy="80"></circle><circle r="0" cx="25" cy="94"></circle><circle r="5" cx="1299" cy="231"></circle><circle r="3" cx="720" cy="305"></circle><circle r="7" cx="203" cy="346"></circle><circle r="4" cx="1623" cy="61"></circle><circle r="9" cx="751" cy="30"></circle><circle r="13" cx="443" cy="357"></circle><circle r="11" cx="890" cy="312"></circle><circle r="2" cx="1236" cy="331"></circle><circle r="5" cx="1525" cy="27"></circle><circle r="4" cx="423" cy="184"></circle><circle r="3" cx="223" cy="222"></circle><circle r="10" cx="115" cy="76"></circle><circle r="3" cx="1462" cy="330"></circle><circle r="11" cx="27" cy="269"></circle><circle r="0" cx="553" cy="233"></circle><circle r="5" cx="1172" cy="137"></circle><circle r="8" cx="562" cy="19"></circle><circle r="3" cx="618" cy="196"></circle><circle r="13" cx="112" cy="364"></circle><circle r="13" cx="988" cy="125"></circle><circle r="11" cx="1383" cy="34"></circle><circle r="1" cx="1782" cy="382"></circle><circle r="12" cx="455" cy="22"></circle><circle r="7" cx="450" cy="293"></circle><circle r="12" cx="396" cy="275"></circle><circle r="2" cx="444" cy="227"></circle><circle r="6" cx="1335" cy="61"></circle><circle r="10" cx="134" cy="21"></circle><circle r="13" cx="1269" cy="80"></circle><circle r="14" cx="1586" cy="349"></circle><circle r="0" cx="1220" cy="295"></circle><circle r="6" cx="853" cy="42"></circle><circle r="2" cx="1495" cy="313"></circle><circle r="6" cx="1604" cy="27"></circle><circle r="1" cx="516" cy="227"></circle><circle r="8" cx="91" cy="266"></circle><circle r="13" cx="1032" cy="345"></circle><circle r="3" cx="1864" cy="382"></circle><circle r="3" cx="1662" cy="380"></circle><circle r="13" cx="831" cy="111"></circle><circle r="12" cx="1461" cy="160"></circle><circle r="10" cx="309" cy="243"></circle><circle r="6" cx="630" cy="380"></circle><circle r="2" cx="1179" cy="348"></circle><circle r="12" cx="1400" cy="306"></circle><circle r="8" cx="255" cy="233"></circle><circle r="2" cx="818" cy="76"></circle><circle r="12" cx="1896" cy="23"></circle><circle r="9" cx="1151" cy="162"></circle><circle r="1" cx="1063" cy="301"></circle><circle r="4" cx="1528" cy="99"></circle><circle r="11" cx="1226" cy="177"></circle><circle r="1" cx="1261" cy="17"></circle><circle r="12" cx="28" cy="20"></circle><circle r="9" cx="678" cy="16"></circle><circle r="13" cx="24" cy="198"></circle><circle r="7" cx="1176" cy="268"></circle><circle r="3" cx="725" cy="264"></circle><circle r="1" cx="466" cy="112"></circle><circle r="6" cx="687" cy="201"></circle><circle r="10" cx="492" cy="164"></circle><circle r="4" cx="1649" cy="320"></circle><circle r="6" cx="338" cy="22"></circle><circle r="2" cx="1403" cy="193"></circle><circle r="8" cx="395" cy="168"></circle><circle r="9" cx="909" cy="383"></circle><circle r="0" cx="137" cy="296"></circle><circle r="7" cx="1106" cy="91"></circle><circle r="12" cx="1604" cy="88"></circle><circle r="4" cx="1498" cy="45"></circle><circle r="5" cx="361" cy="154"></circle><circle r="8" cx="17" cy="374"></circle><circle r="14" cx="1431" cy="310"></circle><circle r="12" cx="379" cy="303"></circle><circle r="0" cx="1279" cy="382"></circle><circle r="8" cx="389" cy="96"></circle><circle r="7" cx="1049" cy="272"></circle><circle r="8" cx="319" cy="85"></circle><circle r="1" cx="806" cy="226"></circle><circle r="14" cx="588" cy="381"></circle><circle r="3" cx="163" cy="149"></circle><circle r="1" cx="382" cy="383"></circle><circle r="8" cx="145" cy="90"></circle><circle r="12" cx="750" cy="319"></circle><circle r="12" cx="1491" cy="382"></circle><circle r="12" cx="1830" cy="254"></circle><circle r="4" cx="82" cy="379"></circle><circle r="10" cx="746" cy="153"></circle><circle r="5" cx="466" cy="144"></circle><circle r="3" cx="852" cy="160"></circle><circle r="12" cx="1520" cy="130"></circle><circle r="0" cx="1049" cy="22"></circle><circle r="5" cx="887" cy="150"></circle><circle r="12" cx="598" cy="258"></circle><circle r="7" cx="1099" cy="166"></circle><circle r="6" cx="124" cy="230"></circle><circle r="12" cx="18" cy="130"></circle><circle r="7" cx="1020" cy="257"></circle><circle r="6" cx="1256" cy="266"></circle><circle r="6" cx="739" cy="364"></circle><circle r="7" cx="677" cy="384"></circle></g></svg>