<svg id="visual" viewBox="0 0 1920 300" width="1920" height="300" xmlns="http://www.w3.org/2000/svg" xmlns:xlink="http://www.w3.org/1999/xlink" version="1.1"><rect x="0" y="0" width="1920" height="300" fill="#6f9ceb"></rect><path d="M0 149L10.3 138.3C20.7 127.7 41.3 106.3 62 83.8C82.7 61.3 103.3 37.7 124 58.8C144.7 80 165.3 146 186 158.7C206.7 171.3 227.3 130.7 248 117.7C268.7 104.7 289.3 119.3 310 119.7C330.7 120 351.3 106 372 98.2C392.7 90.3 413.3 88.7 433.8 103.3C454.3 118 474.7 149 495.2 175.5C515.7 202 536.3 224 557 222.2C577.7 220.3 598.3 194.7 619 191.3C639.7 188 660.3 207 681 182.2C701.7 157.3 722.3 88.7 743 84.2C763.7 79.7 784.3 139.3 805 158C825.7 176.7 846.3 154.3 867 154.7C887.7 155 908.3 178 929 184.3C949.7 190.7 970.3 180.3 991 182C1011.7 183.7 1032.3 197.3 1053 206.7C1073.7 216 1094.3 221 1115 219.3C1135.7 217.7 1156.3 209.3 1177 212.7C1197.7 216 1218.3 231 1239 232.7C1259.7 234.3 1280.3 222.7 1301 208.2C1321.7 193.7 1342.3 176.3 1363 184.7C1383.7 193 1404.3 227 1424.8 240C1445.3 253 1465.7 245 1486.2 212.3C1506.7 179.7 1527.3 122.3 1548 131.3C1568.7 140.3 1589.3 215.7 1610 213.3C1630.7 211 1651.3 131 1672 106C1692.7 81 1713.3 111 1734 111.8C1754.7 112.7 1775.3 84.3 1796 87.3C1816.7 90.3 1837.3 124.7 1858 135.7C1878.7 146.7 1899.3 134.3 1909.7 128.2L1920 122L1920 301L1909.7 301C1899.3 301 1878.7 301 1858 301C1837.3 301 1816.7 301 1796 301C1775.3 301 1754.7 301 1734 301C1713.3 301 1692.7 301 1672 301C1651.3 301 1630.7 301 1610 301C1589.3 301 1568.7 301 1548 301C1527.3 301 1506.7 301 1486.2 301C1465.7 301 1445.3 301 1424.8 301C1404.3 301 1383.7 301 1363 301C1342.3 301 1321.7 301 1301 301C1280.3 301 1259.7 301 1239 301C1218.3 301 1197.7 301 1177 301C1156.3 301 1135.7 301 1115 301C1094.3 301 1073.7 301 1053 301C1032.3 301 1011.7 301 991 301C970.3 301 949.7 301 929 301C908.3 301 887.7 301 867 301C846.3 301 825.7 301 805 301C784.3 301 763.7 301 743 301C722.3 301 701.7 301 681 301C660.3 301 639.7 301 619 301C598.3 301 577.7 301 557 301C536.3 301 515.7 301 495.2 301C474.7 301 454.3 301 433.8 301C413.3 301 392.7 301 372 301C351.3 301 330.7 301 310 301C289.3 301 268.7 301 248 301C227.3 301 206.7 301 186 301C165.3 301 144.7 301 124 301C103.3 301 82.7 301 62 301C41.3 301 20.7 301 10.3 301L0 301Z" fill="#98b9f2" stroke-linecap="round" stroke-linejoin="miter"></path></svg>