<svg id="visual" viewBox="0 0 1920 300" width="1920" height="300" xmlns="http://www.w3.org/2000/svg" xmlns:xlink="http://www.w3.org/1999/xlink" version="1.1"><rect x="0" y="0" width="1920" height="300" fill="#306bac"></rect><path d="M0 278L83 278L83 267L167 267L167 269L250 269L250 278L334 278L334 265L417 265L417 279L501 279L501 273L584 273L584 276L668 276L668 289L751 289L751 264L835 264L835 273L918 273L918 281L1002 281L1002 266L1085 266L1085 286L1169 286L1169 270L1252 270L1252 275L1336 275L1336 263L1419 263L1419 264L1503 264L1503 264L1586 264L1586 280L1670 280L1670 263L1753 263L1753 266L1837 266L1837 264L1920 264L1920 280L1920 0L1920 0L1837 0L1837 0L1753 0L1753 0L1670 0L1670 0L1586 0L1586 0L1503 0L1503 0L1419 0L1419 0L1336 0L1336 0L1252 0L1252 0L1169 0L1169 0L1085 0L1085 0L1002 0L1002 0L918 0L918 0L835 0L835 0L751 0L751 0L668 0L668 0L584 0L584 0L501 0L501 0L417 0L417 0L334 0L334 0L250 0L250 0L167 0L167 0L83 0L83 0L0 0Z" fill="#306bac"></path><path d="M0 246L83 246L83 264L167 264L167 248L250 248L250 256L334 256L334 252L417 252L417 242L501 242L501 251L584 251L584 256L668 256L668 251L751 251L751 241L835 241L835 255L918 255L918 245L1002 245L1002 257L1085 257L1085 257L1169 257L1169 246L1252 246L1252 252L1336 252L1336 261L1419 261L1419 241L1503 241L1503 253L1586 253L1586 267L1670 267L1670 247L1753 247L1753 259L1837 259L1837 266L1920 266L1920 246L1920 0L1920 0L1837 0L1837 0L1753 0L1753 0L1670 0L1670 0L1586 0L1586 0L1503 0L1503 0L1419 0L1419 0L1336 0L1336 0L1252 0L1252 0L1169 0L1169 0L1085 0L1085 0L1002 0L1002 0L918 0L918 0L835 0L835 0L751 0L751 0L668 0L668 0L584 0L584 0L501 0L501 0L417 0L417 0L334 0L334 0L250 0L250 0L167 0L167 0L83 0L83 0L0 0Z" fill="#4c75b2"></path><path d="M0 223L83 223L83 243L167 243L167 243L250 243L250 233L334 233L334 224L417 224L417 221L501 221L501 219L584 219L584 239L668 239L668 221L751 221L751 222L835 222L835 220L918 220L918 224L1002 224L1002 232L1085 232L1085 236L1169 236L1169 221L1252 221L1252 229L1336 229L1336 237L1419 237L1419 236L1503 236L1503 237L1586 237L1586 217L1670 217L1670 237L1753 237L1753 231L1837 231L1837 221L1920 221L1920 235L1920 0L1920 0L1837 0L1837 0L1753 0L1753 0L1670 0L1670 0L1586 0L1586 0L1503 0L1503 0L1419 0L1419 0L1336 0L1336 0L1252 0L1252 0L1169 0L1169 0L1085 0L1085 0L1002 0L1002 0L918 0L918 0L835 0L835 0L751 0L751 0L668 0L668 0L584 0L584 0L501 0L501 0L417 0L417 0L334 0L334 0L250 0L250 0L167 0L167 0L83 0L83 0L0 0Z" fill="#6280b9"></path><path d="M0 216L83 216L83 204L167 204L167 198L250 198L250 215L334 215L334 210L417 210L417 214L501 214L501 193L584 193L584 207L668 207L668 199L751 199L751 214L835 214L835 215L918 215L918 211L1002 211L1002 195L1085 195L1085 214L1169 214L1169 204L1252 204L1252 196L1336 196L1336 208L1419 208L1419 199L1503 199L1503 203L1586 203L1586 210L1670 210L1670 194L1753 194L1753 210L1837 210L1837 196L1920 196L1920 205L1920 0L1920 0L1837 0L1837 0L1753 0L1753 0L1670 0L1670 0L1586 0L1586 0L1503 0L1503 0L1419 0L1419 0L1336 0L1336 0L1252 0L1252 0L1169 0L1169 0L1085 0L1085 0L1002 0L1002 0L918 0L918 0L835 0L835 0L751 0L751 0L668 0L668 0L584 0L584 0L501 0L501 0L417 0L417 0L334 0L334 0L250 0L250 0L167 0L167 0L83 0L83 0L0 0Z" fill="#768bbf"></path><path d="M0 179L83 179L83 180L167 180L167 181L250 181L250 189L334 189L334 186L417 186L417 178L501 178L501 188L584 188L584 171L668 171L668 191L751 191L751 173L835 173L835 187L918 187L918 196L1002 196L1002 174L1085 174L1085 193L1169 193L1169 182L1252 182L1252 175L1336 175L1336 175L1419 175L1419 183L1503 183L1503 172L1586 172L1586 173L1670 173L1670 177L1753 177L1753 186L1837 186L1837 176L1920 176L1920 187L1920 0L1920 0L1837 0L1837 0L1753 0L1753 0L1670 0L1670 0L1586 0L1586 0L1503 0L1503 0L1419 0L1419 0L1336 0L1336 0L1252 0L1252 0L1169 0L1169 0L1085 0L1085 0L1002 0L1002 0L918 0L918 0L835 0L835 0L751 0L751 0L668 0L668 0L584 0L584 0L501 0L501 0L417 0L417 0L334 0L334 0L250 0L250 0L167 0L167 0L83 0L83 0L0 0Z" fill="#8896c5"></path><path d="M0 158L83 158L83 154L167 154L167 168L250 168L250 157L334 157L334 170L417 170L417 160L501 160L501 166L584 166L584 158L668 158L668 158L751 158L751 147L835 147L835 169L918 169L918 166L1002 166L1002 155L1085 155L1085 168L1169 168L1169 147L1252 147L1252 159L1336 159L1336 155L1419 155L1419 174L1503 174L1503 163L1586 163L1586 148L1670 148L1670 161L1753 161L1753 149L1837 149L1837 167L1920 167L1920 162L1920 0L1920 0L1837 0L1837 0L1753 0L1753 0L1670 0L1670 0L1586 0L1586 0L1503 0L1503 0L1419 0L1419 0L1336 0L1336 0L1252 0L1252 0L1169 0L1169 0L1085 0L1085 0L1002 0L1002 0L918 0L918 0L835 0L835 0L751 0L751 0L668 0L668 0L584 0L584 0L501 0L501 0L417 0L417 0L334 0L334 0L250 0L250 0L167 0L167 0L83 0L83 0L0 0Z" fill="#99a2cc"></path><path d="M0 144L83 144L83 147L167 147L167 139L250 139L250 130L334 130L334 135L417 135L417 124L501 124L501 133L584 133L584 147L668 147L668 151L751 151L751 130L835 130L835 147L918 147L918 147L1002 147L1002 149L1085 149L1085 142L1169 142L1169 124L1252 124L1252 129L1336 129L1336 145L1419 145L1419 149L1503 149L1503 127L1586 127L1586 150L1670 150L1670 148L1753 148L1753 151L1837 151L1837 134L1920 134L1920 149L1920 0L1920 0L1837 0L1837 0L1753 0L1753 0L1670 0L1670 0L1586 0L1586 0L1503 0L1503 0L1419 0L1419 0L1336 0L1336 0L1252 0L1252 0L1169 0L1169 0L1085 0L1085 0L1002 0L1002 0L918 0L918 0L835 0L835 0L751 0L751 0L668 0L668 0L584 0L584 0L501 0L501 0L417 0L417 0L334 0L334 0L250 0L250 0L167 0L167 0L83 0L83 0L0 0Z" fill="#a9aed2"></path><path d="M0 127L83 127L83 108L167 108L167 107L250 107L250 124L334 124L334 117L417 117L417 108L501 108L501 106L584 106L584 106L668 106L668 117L751 117L751 106L835 106L835 117L918 117L918 103L1002 103L1002 128L1085 128L1085 102L1169 102L1169 104L1252 104L1252 126L1336 126L1336 125L1419 125L1419 105L1503 105L1503 115L1586 115L1586 116L1670 116L1670 114L1753 114L1753 128L1837 128L1837 110L1920 110L1920 113L1920 0L1920 0L1837 0L1837 0L1753 0L1753 0L1670 0L1670 0L1586 0L1586 0L1503 0L1503 0L1419 0L1419 0L1336 0L1336 0L1252 0L1252 0L1169 0L1169 0L1085 0L1085 0L1002 0L1002 0L918 0L918 0L835 0L835 0L751 0L751 0L668 0L668 0L584 0L584 0L501 0L501 0L417 0L417 0L334 0L334 0L250 0L250 0L167 0L167 0L83 0L83 0L0 0Z" fill="#b8bad9"></path><path d="M0 102L83 102L83 82L167 82L167 78L250 78L250 96L334 96L334 102L417 102L417 98L501 98L501 102L584 102L584 84L668 84L668 86L751 86L751 79L835 79L835 84L918 84L918 83L1002 83L1002 81L1085 81L1085 78L1169 78L1169 97L1252 97L1252 86L1336 86L1336 93L1419 93L1419 87L1503 87L1503 101L1586 101L1586 83L1670 83L1670 103L1753 103L1753 104L1837 104L1837 78L1920 78L1920 102L1920 0L1920 0L1837 0L1837 0L1753 0L1753 0L1670 0L1670 0L1586 0L1586 0L1503 0L1503 0L1419 0L1419 0L1336 0L1336 0L1252 0L1252 0L1169 0L1169 0L1085 0L1085 0L1002 0L1002 0L918 0L918 0L835 0L835 0L751 0L751 0L668 0L668 0L584 0L584 0L501 0L501 0L417 0L417 0L334 0L334 0L250 0L250 0L167 0L167 0L83 0L83 0L0 0Z" fill="#c7c7df"></path><path d="M0 63L83 63L83 70L167 70L167 75L250 75L250 55L334 55L334 65L417 65L417 78L501 78L501 67L584 67L584 56L668 56L668 76L751 76L751 55L835 55L835 60L918 60L918 65L1002 65L1002 76L1085 76L1085 69L1169 69L1169 72L1252 72L1252 57L1336 57L1336 66L1419 66L1419 70L1503 70L1503 77L1586 77L1586 57L1670 57L1670 78L1753 78L1753 65L1837 65L1837 64L1920 64L1920 78L1920 0L1920 0L1837 0L1837 0L1753 0L1753 0L1670 0L1670 0L1586 0L1586 0L1503 0L1503 0L1419 0L1419 0L1336 0L1336 0L1252 0L1252 0L1169 0L1169 0L1085 0L1085 0L1002 0L1002 0L918 0L918 0L835 0L835 0L751 0L751 0L668 0L668 0L584 0L584 0L501 0L501 0L417 0L417 0L334 0L334 0L250 0L250 0L167 0L167 0L83 0L83 0L0 0Z" fill="#d5d4e6"></path><path d="M0 40L83 40L83 36L167 36L167 42L250 42L250 54L334 54L334 57L417 57L417 34L501 34L501 57L584 57L584 33L668 33L668 52L751 52L751 49L835 49L835 34L918 34L918 41L1002 41L1002 38L1085 38L1085 48L1169 48L1169 32L1252 32L1252 47L1336 47L1336 40L1419 40L1419 43L1503 43L1503 35L1586 35L1586 35L1670 35L1670 52L1753 52L1753 55L1837 55L1837 41L1920 41L1920 42L1920 0L1920 0L1837 0L1837 0L1753 0L1753 0L1670 0L1670 0L1586 0L1586 0L1503 0L1503 0L1419 0L1419 0L1336 0L1336 0L1252 0L1252 0L1169 0L1169 0L1085 0L1085 0L1002 0L1002 0L918 0L918 0L835 0L835 0L751 0L751 0L668 0L668 0L584 0L584 0L501 0L501 0L417 0L417 0L334 0L334 0L250 0L250 0L167 0L167 0L83 0L83 0L0 0Z" fill="#e3e1ed"></path><path d="M0 12L83 12L83 28L167 28L167 12L250 12L250 24L334 24L334 25L417 25L417 16L501 16L501 25L584 25L584 35L668 35L668 10L751 10L751 35L835 35L835 35L918 35L918 33L1002 33L1002 22L1085 22L1085 34L1169 34L1169 11L1252 11L1252 13L1336 13L1336 30L1419 30L1419 34L1503 34L1503 10L1586 10L1586 28L1670 28L1670 33L1753 33L1753 14L1837 14L1837 11L1920 11L1920 35L1920 0L1920 0L1837 0L1837 0L1753 0L1753 0L1670 0L1670 0L1586 0L1586 0L1503 0L1503 0L1419 0L1419 0L1336 0L1336 0L1252 0L1252 0L1169 0L1169 0L1085 0L1085 0L1002 0L1002 0L918 0L918 0L835 0L835 0L751 0L751 0L668 0L668 0L584 0L584 0L501 0L501 0L417 0L417 0L334 0L334 0L250 0L250 0L167 0L167 0L83 0L83 0L0 0Z" fill="#f0eff4"></path></svg>