<svg id="visual" viewBox="0 0 1920 300" width="1920" height="300" xmlns="http://www.w3.org/2000/svg" xmlns:xlink="http://www.w3.org/1999/xlink" version="1.1"><path d="M0 10L13.8 42.5C27.7 75 55.3 140 83.2 139C111 138 139 71 166.8 55.5C194.7 40 222.3 76 250.2 94C278 112 306 112 333.8 120C361.7 128 389.3 144 417.2 129C445 114 473 68 500.8 57.5C528.7 47 556.3 72 584.2 78.5C612 85 640 73 667.8 68C695.7 63 723.3 65 751.2 75C779 85 807 103 834.8 101C862.7 99 890.3 77 918.2 64C946 51 974 47 1001.8 61C1029.7 75 1057.3 107 1085.2 107C1113 107 1141 75 1168.8 79.5C1196.7 84 1224.3 125 1252.2 122.5C1280 120 1308 74 1335.8 56.5C1363.7 39 1391.3 50 1419.2 49.5C1447 49 1475 37 1502.8 57C1530.7 77 1558.3 129 1586.2 152.5C1614 176 1642 171 1669.8 147.5C1697.7 124 1725.3 82 1753.2 55.5C1781 29 1809 18 1836.8 39.5C1864.7 61 1892.3 115 1906.2 142L1920 169L1920 0L1906.2 0C1892.3 0 1864.7 0 1836.8 0C1809 0 1781 0 1753.2 0C1725.3 0 1697.7 0 1669.8 0C1642 0 1614 0 1586.2 0C1558.3 0 1530.7 0 1502.8 0C1475 0 1447 0 1419.2 0C1391.3 0 1363.7 0 1335.8 0C1308 0 1280 0 1252.2 0C1224.3 0 1196.7 0 1168.8 0C1141 0 1113 0 1085.2 0C1057.3 0 1029.7 0 1001.8 0C974 0 946 0 918.2 0C890.3 0 862.7 0 834.8 0C807 0 779 0 751.2 0C723.3 0 695.7 0 667.8 0C640 0 612 0 584.2 0C556.3 0 528.7 0 500.8 0C473 0 445 0 417.2 0C389.3 0 361.7 0 333.8 0C306 0 278 0 250.2 0C222.3 0 194.7 0 166.8 0C139 0 111 0 83.2 0C55.3 0 27.7 0 13.8 0L0 0Z" fill="#98b9f2"></path><path d="M0 154L13.8 173C27.7 192 55.3 230 83.2 224.5C111 219 139 170 166.8 159C194.7 148 222.3 175 250.2 191C278 207 306 212 333.8 219.5C361.7 227 389.3 237 417.2 224.5C445 212 473 177 500.8 161C528.7 145 556.3 148 584.2 140.5C612 133 640 115 667.8 124.5C695.7 134 723.3 171 751.2 192C779 213 807 218 834.8 205.5C862.7 193 890.3 163 918.2 144.5C946 126 974 119 1001.8 134.5C1029.7 150 1057.3 188 1085.2 189C1113 190 1141 154 1168.8 165C1196.7 176 1224.3 234 1252.2 241.5C1280 249 1308 206 1335.8 188.5C1363.7 171 1391.3 179 1419.2 171.5C1447 164 1475 141 1502.8 151.5C1530.7 162 1558.3 206 1586.2 228C1614 250 1642 250 1669.8 215.5C1697.7 181 1725.3 112 1753.2 86.5C1781 61 1809 79 1836.8 100C1864.7 121 1892.3 145 1906.2 157L1920 169L1920 167L1906.2 140C1892.3 113 1864.7 59 1836.8 37.5C1809 16 1781 27 1753.2 53.5C1725.3 80 1697.7 122 1669.8 145.5C1642 169 1614 174 1586.2 150.5C1558.3 127 1530.7 75 1502.8 55C1475 35 1447 47 1419.2 47.5C1391.3 48 1363.7 37 1335.8 54.5C1308 72 1280 118 1252.2 120.5C1224.3 123 1196.7 82 1168.8 77.5C1141 73 1113 105 1085.2 105C1057.3 105 1029.7 73 1001.8 59C974 45 946 49 918.2 62C890.3 75 862.7 97 834.8 99C807 101 779 83 751.2 73C723.3 63 695.7 61 667.8 66C640 71 612 83 584.2 76.5C556.3 70 528.7 45 500.8 55.5C473 66 445 112 417.2 127C389.3 142 361.7 126 333.8 118C306 110 278 110 250.2 92C222.3 74 194.7 38 166.8 53.5C139 69 111 136 83.2 137C55.3 138 27.7 73 13.8 40.5L0 8Z" fill="#8ea5f6"></path><path d="M0 301L13.8 301C27.7 301 55.3 301 83.2 301C111 301 139 301 166.8 301C194.7 301 222.3 301 250.2 301C278 301 306 301 333.8 301C361.7 301 389.3 301 417.2 301C445 301 473 301 500.8 301C528.7 301 556.3 301 584.2 301C612 301 640 301 667.8 301C695.7 301 723.3 301 751.2 301C779 301 807 301 834.8 301C862.7 301 890.3 301 918.2 301C946 301 974 301 1001.8 301C1029.7 301 1057.3 301 1085.2 301C1113 301 1141 301 1168.8 301C1196.7 301 1224.3 301 1252.2 301C1280 301 1308 301 1335.8 301C1363.7 301 1391.3 301 1419.2 301C1447 301 1475 301 1502.8 301C1530.7 301 1558.3 301 1586.2 301C1614 301 1642 301 1669.8 301C1697.7 301 1725.3 301 1753.2 301C1781 301 1809 301 1836.8 301C1864.7 301 1892.3 301 1906.2 301L1920 301L1920 167L1906.2 155C1892.3 143 1864.7 119 1836.8 98C1809 77 1781 59 1753.2 84.5C1725.3 110 1697.7 179 1669.8 213.5C1642 248 1614 248 1586.2 226C1558.3 204 1530.7 160 1502.8 149.5C1475 139 1447 162 1419.2 169.5C1391.3 177 1363.7 169 1335.8 186.5C1308 204 1280 247 1252.2 239.5C1224.3 232 1196.7 174 1168.8 163C1141 152 1113 188 1085.2 187C1057.3 186 1029.7 148 1001.8 132.5C974 117 946 124 918.2 142.5C890.3 161 862.7 191 834.8 203.5C807 216 779 211 751.2 190C723.3 169 695.7 132 667.8 122.5C640 113 612 131 584.2 138.5C556.3 146 528.7 143 500.8 159C473 175 445 210 417.2 222.5C389.3 235 361.7 225 333.8 217.5C306 210 278 205 250.2 189C222.3 173 194.7 146 166.8 157C139 168 111 217 83.2 222.5C55.3 228 27.7 190 13.8 171L0 152Z" fill="#918ef4"></path></svg>