<svg id="visual" viewBox="0 0 1920 300" width="1920" height="300" xmlns="http://www.w3.org/2000/svg" xmlns:xlink="http://www.w3.org/1999/xlink" version="1.1"><rect x="0" y="0" width="1920" height="300" fill="#00000000"></rect><path d="M0 13L13.8 18.2C27.7 23.3 55.3 33.7 83.2 37.2C111 40.7 139 37.3 166.8 37.5C194.7 37.7 222.3 41.3 250.2 42.3C278 43.3 306 41.7 333.8 40.8C361.7 40 389.3 40 417.2 37.5C445 35 473 30 500.8 26.8C528.7 23.7 556.3 22.3 584.2 19.7C612 17 640 13 667.8 10.8C695.7 8.7 723.3 8.3 751.2 13.3C779 18.3 807 28.7 834.8 29.7C862.7 30.7 890.3 22.3 918.2 21C946 19.7 974 25.3 1001.8 26.8C1029.7 28.3 1057.3 25.7 1085.2 23.5C1113 21.3 1141 19.7 1168.8 22.2C1196.7 24.7 1224.3 31.3 1252.2 32C1280 32.7 1308 27.3 1335.8 25.2C1363.7 23 1391.3 24 1419.2 20.5C1447 17 1475 9 1502.8 10.7C1530.7 12.3 1558.3 23.7 1586.2 29.8C1614 36 1642 37 1669.8 35.2C1697.7 33.3 1725.3 28.7 1753.2 29.2C1781 29.7 1809 35.3 1836.8 36C1864.7 36.7 1892.3 32.3 1906.2 30.2L1920 28L1920 301L1906.2 301C1892.3 301 1864.7 301 1836.8 301C1809 301 1781 301 1753.2 301C1725.3 301 1697.7 301 1669.8 301C1642 301 1614 301 1586.2 301C1558.3 301 1530.7 301 1502.8 301C1475 301 1447 301 1419.2 301C1391.3 301 1363.7 301 1335.8 301C1308 301 1280 301 1252.2 301C1224.3 301 1196.7 301 1168.8 301C1141 301 1113 301 1085.2 301C1057.3 301 1029.7 301 1001.8 301C974 301 946 301 918.2 301C890.3 301 862.7 301 834.8 301C807 301 779 301 751.2 301C723.3 301 695.7 301 667.8 301C640 301 612 301 584.2 301C556.3 301 528.7 301 500.8 301C473 301 445 301 417.2 301C389.3 301 361.7 301 333.8 301C306 301 278 301 250.2 301C222.3 301 194.7 301 166.8 301C139 301 111 301 83.2 301C55.3 301 27.7 301 13.8 301L0 301Z" fill="#00000033"></path><path d="M0 23L13.8 24.5C27.7 26 55.3 29 83.2 33.7C111 38.3 139 44.7 166.8 46.2C194.7 47.7 222.3 44.3 250.2 40.3C278 36.3 306 31.7 333.8 31C361.7 30.3 389.3 33.7 417.2 39.3C445 45 473 53 500.8 56.3C528.7 59.7 556.3 58.3 584.2 58.3C612 58.3 640 59.7 667.8 59.2C695.7 58.7 723.3 56.3 751.2 54.7C779 53 807 52 834.8 52.8C862.7 53.7 890.3 56.3 918.2 51.7C946 47 974 35 1001.8 29.2C1029.7 23.3 1057.3 23.7 1085.2 25.2C1113 26.7 1141 29.3 1168.8 35.3C1196.7 41.3 1224.3 50.7 1252.2 50.7C1280 50.7 1308 41.3 1335.8 38.8C1363.7 36.3 1391.3 40.7 1419.2 42.3C1447 44 1475 43 1502.8 41C1530.7 39 1558.3 36 1586.2 39.7C1614 43.3 1642 53.7 1669.8 57C1697.7 60.3 1725.3 56.7 1753.2 50.7C1781 44.7 1809 36.3 1836.8 31.3C1864.7 26.3 1892.3 24.7 1906.2 23.8L1920 23L1920 301L1906.2 301C1892.3 301 1864.7 301 1836.8 301C1809 301 1781 301 1753.2 301C1725.3 301 1697.7 301 1669.8 301C1642 301 1614 301 1586.2 301C1558.3 301 1530.7 301 1502.8 301C1475 301 1447 301 1419.2 301C1391.3 301 1363.7 301 1335.8 301C1308 301 1280 301 1252.2 301C1224.3 301 1196.7 301 1168.8 301C1141 301 1113 301 1085.2 301C1057.3 301 1029.7 301 1001.8 301C974 301 946 301 918.2 301C890.3 301 862.7 301 834.8 301C807 301 779 301 751.2 301C723.3 301 695.7 301 667.8 301C640 301 612 301 584.2 301C556.3 301 528.7 301 500.8 301C473 301 445 301 417.2 301C389.3 301 361.7 301 333.8 301C306 301 278 301 250.2 301C222.3 301 194.7 301 166.8 301C139 301 111 301 83.2 301C55.3 301 27.7 301 13.8 301L0 301Z" fill="#1a001f33"></path><path d="M0 56L13.8 59C27.7 62 55.3 68 83.2 73C111 78 139 82 166.8 79.3C194.7 76.7 222.3 67.3 250.2 67C278 66.7 306 75.3 333.8 73.3C361.7 71.3 389.3 58.7 417.2 59.5C445 60.3 473 74.7 500.8 80.8C528.7 87 556.3 85 584.2 82C612 79 640 75 667.8 69.8C695.7 64.7 723.3 58.3 751.2 57.8C779 57.3 807 62.7 834.8 67.5C862.7 72.3 890.3 76.7 918.2 80.3C946 84 974 87 1001.8 88.3C1029.7 89.7 1057.3 89.3 1085.2 86.8C1113 84.3 1141 79.7 1168.8 75.5C1196.7 71.3 1224.3 67.7 1252.2 63.5C1280 59.3 1308 54.7 1335.8 56.5C1363.7 58.3 1391.3 66.7 1419.2 66.2C1447 65.7 1475 56.3 1502.8 54C1530.7 51.7 1558.3 56.3 1586.2 61.7C1614 67 1642 73 1669.8 73.7C1697.7 74.3 1725.3 69.7 1753.2 67.2C1781 64.7 1809 64.3 1836.8 63.2C1864.7 62 1892.3 60 1906.2 59L1920 58L1920 301L1906.2 301C1892.3 301 1864.7 301 1836.8 301C1809 301 1781 301 1753.2 301C1725.3 301 1697.7 301 1669.8 301C1642 301 1614 301 1586.2 301C1558.3 301 1530.7 301 1502.8 301C1475 301 1447 301 1419.2 301C1391.3 301 1363.7 301 1335.8 301C1308 301 1280 301 1252.2 301C1224.3 301 1196.7 301 1168.8 301C1141 301 1113 301 1085.2 301C1057.3 301 1029.7 301 1001.8 301C974 301 946 301 918.2 301C890.3 301 862.7 301 834.8 301C807 301 779 301 751.2 301C723.3 301 695.7 301 667.8 301C640 301 612 301 584.2 301C556.3 301 528.7 301 500.8 301C473 301 445 301 417.2 301C389.3 301 361.7 301 333.8 301C306 301 278 301 250.2 301C222.3 301 194.7 301 166.8 301C139 301 111 301 83.2 301C55.3 301 27.7 301 13.8 301L0 301Z" fill="#1c012233"></path><path d="M0 112L13.8 108.7C27.7 105.3 55.3 98.7 83.2 92C111 85.3 139 78.7 166.8 80.3C194.7 82 222.3 92 250.2 93.3C278 94.7 306 87.3 333.8 88.5C361.7 89.7 389.3 99.3 417.2 101C445 102.7 473 96.3 500.8 95.8C528.7 95.3 556.3 100.7 584.2 101.8C612 103 640 100 667.8 100.2C695.7 100.3 723.3 103.7 751.2 104.5C779 105.3 807 103.7 834.8 98.7C862.7 93.7 890.3 85.3 918.2 82.2C946 79 974 81 1001.8 80.2C1029.7 79.3 1057.3 75.7 1085.2 78.5C1113 81.3 1141 90.7 1168.8 91.5C1196.7 92.3 1224.3 84.7 1252.2 82.7C1280 80.7 1308 84.3 1335.8 88.8C1363.7 93.3 1391.3 98.7 1419.2 97.5C1447 96.3 1475 88.7 1502.8 86.7C1530.7 84.7 1558.3 88.3 1586.2 86.8C1614 85.3 1642 78.7 1669.8 76.8C1697.7 75 1725.3 78 1753.2 80.7C1781 83.3 1809 85.7 1836.8 87.8C1864.7 90 1892.3 92 1906.2 93L1920 94L1920 301L1906.2 301C1892.3 301 1864.7 301 1836.8 301C1809 301 1781 301 1753.2 301C1725.3 301 1697.7 301 1669.8 301C1642 301 1614 301 1586.2 301C1558.3 301 1530.7 301 1502.8 301C1475 301 1447 301 1419.2 301C1391.3 301 1363.7 301 1335.8 301C1308 301 1280 301 1252.2 301C1224.3 301 1196.7 301 1168.8 301C1141 301 1113 301 1085.2 301C1057.3 301 1029.7 301 1001.8 301C974 301 946 301 918.2 301C890.3 301 862.7 301 834.8 301C807 301 779 301 751.2 301C723.3 301 695.7 301 667.8 301C640 301 612 301 584.2 301C556.3 301 528.7 301 500.8 301C473 301 445 301 417.2 301C389.3 301 361.7 301 333.8 301C306 301 278 301 250.2 301C222.3 301 194.7 301 166.8 301C139 301 111 301 83.2 301C55.3 301 27.7 301 13.8 301L0 301Z" fill="#1e072633"></path><path d="M0 121L13.8 121.7C27.7 122.3 55.3 123.7 83.2 124.5C111 125.3 139 125.7 166.8 122.3C194.7 119 222.3 112 250.2 109.7C278 107.3 306 109.7 333.8 108.3C361.7 107 389.3 102 417.2 103.7C445 105.3 473 113.7 500.8 114C528.7 114.3 556.3 106.7 584.2 104C612 101.3 640 103.7 667.8 107.7C695.7 111.7 723.3 117.3 751.2 117.8C779 118.3 807 113.7 834.8 112.5C862.7 111.3 890.3 113.7 918.2 114.5C946 115.3 974 114.7 1001.8 113.3C1029.7 112 1057.3 110 1085.2 113.8C1113 117.7 1141 127.3 1168.8 124.8C1196.7 122.3 1224.3 107.7 1252.2 100.3C1280 93 1308 93 1335.8 98.3C1363.7 103.7 1391.3 114.3 1419.2 114.8C1447 115.3 1475 105.7 1502.8 105.5C1530.7 105.3 1558.3 114.7 1586.2 113.8C1614 113 1642 102 1669.8 103.2C1697.7 104.3 1725.3 117.7 1753.2 123.2C1781 128.7 1809 126.3 1836.8 121.2C1864.7 116 1892.3 108 1906.2 104L1920 100L1920 301L1906.2 301C1892.3 301 1864.7 301 1836.8 301C1809 301 1781 301 1753.2 301C1725.3 301 1697.7 301 1669.8 301C1642 301 1614 301 1586.2 301C1558.3 301 1530.7 301 1502.8 301C1475 301 1447 301 1419.2 301C1391.3 301 1363.7 301 1335.8 301C1308 301 1280 301 1252.2 301C1224.3 301 1196.7 301 1168.8 301C1141 301 1113 301 1085.2 301C1057.3 301 1029.7 301 1001.8 301C974 301 946 301 918.2 301C890.3 301 862.7 301 834.8 301C807 301 779 301 751.2 301C723.3 301 695.7 301 667.8 301C640 301 612 301 584.2 301C556.3 301 528.7 301 500.8 301C473 301 445 301 417.2 301C389.3 301 361.7 301 333.8 301C306 301 278 301 250.2 301C222.3 301 194.7 301 166.8 301C139 301 111 301 83.2 301C55.3 301 27.7 301 13.8 301L0 301Z" fill="#210d2933"></path><path d="M0 129L13.8 134C27.7 139 55.3 149 83.2 148.7C111 148.3 139 137.7 166.8 131.3C194.7 125 222.3 123 250.2 127.7C278 132.3 306 143.7 333.8 147.3C361.7 151 389.3 147 417.2 141.8C445 136.7 473 130.3 500.8 129.7C528.7 129 556.3 134 584.2 138.2C612 142.3 640 145.7 667.8 142.5C695.7 139.3 723.3 129.7 751.2 131C779 132.3 807 144.7 834.8 150.8C862.7 157 890.3 157 918.2 153C946 149 974 141 1001.8 137.8C1029.7 134.7 1057.3 136.3 1085.2 139.5C1113 142.7 1141 147.3 1168.8 148.7C1196.7 150 1224.3 148 1252.2 144.3C1280 140.7 1308 135.3 1335.8 135.3C1363.7 135.3 1391.3 140.7 1419.2 138.3C1447 136 1475 126 1502.8 123.3C1530.7 120.7 1558.3 125.3 1586.2 131.3C1614 137.3 1642 144.7 1669.8 145.5C1697.7 146.3 1725.3 140.7 1753.2 142C1781 143.3 1809 151.7 1836.8 148.7C1864.7 145.7 1892.3 131.3 1906.2 124.2L1920 117L1920 301L1906.2 301C1892.3 301 1864.7 301 1836.8 301C1809 301 1781 301 1753.2 301C1725.3 301 1697.7 301 1669.8 301C1642 301 1614 301 1586.2 301C1558.3 301 1530.7 301 1502.8 301C1475 301 1447 301 1419.2 301C1391.3 301 1363.7 301 1335.8 301C1308 301 1280 301 1252.2 301C1224.3 301 1196.7 301 1168.8 301C1141 301 1113 301 1085.2 301C1057.3 301 1029.7 301 1001.8 301C974 301 946 301 918.2 301C890.3 301 862.7 301 834.8 301C807 301 779 301 751.2 301C723.3 301 695.7 301 667.8 301C640 301 612 301 584.2 301C556.3 301 528.7 301 500.8 301C473 301 445 301 417.2 301C389.3 301 361.7 301 333.8 301C306 301 278 301 250.2 301C222.3 301 194.7 301 166.8 301C139 301 111 301 83.2 301C55.3 301 27.7 301 13.8 301L0 301Z" fill="#25102d33"></path><path d="M0 177L13.8 172.3C27.7 167.7 55.3 158.3 83.2 158.2C111 158 139 167 166.8 170.3C194.7 173.7 222.3 171.3 250.2 170.2C278 169 306 169 333.8 169.3C361.7 169.7 389.3 170.3 417.2 172.3C445 174.3 473 177.7 500.8 172.7C528.7 167.7 556.3 154.3 584.2 149.7C612 145 640 149 667.8 152.7C695.7 156.3 723.3 159.7 751.2 161.2C779 162.7 807 162.3 834.8 160.5C862.7 158.7 890.3 155.3 918.2 158.8C946 162.3 974 172.7 1001.8 177.8C1029.7 183 1057.3 183 1085.2 177.7C1113 172.3 1141 161.7 1168.8 156.7C1196.7 151.7 1224.3 152.3 1252.2 153.2C1280 154 1308 155 1335.8 155.3C1363.7 155.7 1391.3 155.3 1419.2 152.7C1447 150 1475 145 1502.8 144C1530.7 143 1558.3 146 1586.2 147.7C1614 149.3 1642 149.7 1669.8 153C1697.7 156.3 1725.3 162.7 1753.2 163.7C1781 164.7 1809 160.3 1836.8 157C1864.7 153.7 1892.3 151.3 1906.2 150.2L1920 149L1920 301L1906.2 301C1892.3 301 1864.7 301 1836.8 301C1809 301 1781 301 1753.2 301C1725.3 301 1697.7 301 1669.8 301C1642 301 1614 301 1586.2 301C1558.3 301 1530.7 301 1502.8 301C1475 301 1447 301 1419.2 301C1391.3 301 1363.7 301 1335.8 301C1308 301 1280 301 1252.2 301C1224.3 301 1196.7 301 1168.8 301C1141 301 1113 301 1085.2 301C1057.3 301 1029.7 301 1001.8 301C974 301 946 301 918.2 301C890.3 301 862.7 301 834.8 301C807 301 779 301 751.2 301C723.3 301 695.7 301 667.8 301C640 301 612 301 584.2 301C556.3 301 528.7 301 500.8 301C473 301 445 301 417.2 301C389.3 301 361.7 301 333.8 301C306 301 278 301 250.2 301C222.3 301 194.7 301 166.8 301C139 301 111 301 83.2 301C55.3 301 27.7 301 13.8 301L0 301Z" fill="#29143133"></path><path d="M0 166L13.8 171.2C27.7 176.3 55.3 186.7 83.2 187.5C111 188.3 139 179.7 166.8 175.7C194.7 171.7 222.3 172.3 250.2 171C278 169.7 306 166.3 333.8 166.3C361.7 166.3 389.3 169.7 417.2 172.8C445 176 473 179 500.8 181.7C528.7 184.3 556.3 186.7 584.2 184.5C612 182.3 640 175.7 667.8 175.2C695.7 174.7 723.3 180.3 751.2 181.3C779 182.3 807 178.7 834.8 177.5C862.7 176.3 890.3 177.7 918.2 179.5C946 181.3 974 183.7 1001.8 182.7C1029.7 181.7 1057.3 177.3 1085.2 175.7C1113 174 1141 175 1168.8 174.5C1196.7 174 1224.3 172 1252.2 170.8C1280 169.7 1308 169.3 1335.8 168.5C1363.7 167.7 1391.3 166.3 1419.2 168.3C1447 170.3 1475 175.7 1502.8 176.8C1530.7 178 1558.3 175 1586.2 177.5C1614 180 1642 188 1669.8 186.2C1697.7 184.3 1725.3 172.7 1753.2 167C1781 161.3 1809 161.7 1836.8 167.3C1864.7 173 1892.3 184 1906.2 189.5L1920 195L1920 301L1906.2 301C1892.3 301 1864.7 301 1836.8 301C1809 301 1781 301 1753.2 301C1725.3 301 1697.7 301 1669.8 301C1642 301 1614 301 1586.2 301C1558.3 301 1530.7 301 1502.8 301C1475 301 1447 301 1419.2 301C1391.3 301 1363.7 301 1335.8 301C1308 301 1280 301 1252.2 301C1224.3 301 1196.7 301 1168.8 301C1141 301 1113 301 1085.2 301C1057.3 301 1029.7 301 1001.8 301C974 301 946 301 918.2 301C890.3 301 862.7 301 834.8 301C807 301 779 301 751.2 301C723.3 301 695.7 301 667.8 301C640 301 612 301 584.2 301C556.3 301 528.7 301 500.8 301C473 301 445 301 417.2 301C389.3 301 361.7 301 333.8 301C306 301 278 301 250.2 301C222.3 301 194.7 301 166.8 301C139 301 111 301 83.2 301C55.3 301 27.7 301 13.8 301L0 301Z" fill="#2d173533"></path><path d="M0 197L13.8 201.2C27.7 205.3 55.3 213.7 83.2 211.5C111 209.3 139 196.7 166.8 196.2C194.7 195.7 222.3 207.3 250.2 214.3C278 221.3 306 223.7 333.8 221.3C361.7 219 389.3 212 417.2 209.3C445 206.7 473 208.3 500.8 207.5C528.7 206.7 556.3 203.3 584.2 201.5C612 199.7 640 199.3 667.8 204C695.7 208.7 723.3 218.3 751.2 217.2C779 216 807 204 834.8 202C862.7 200 890.3 208 918.2 210.5C946 213 974 210 1001.8 205.8C1029.7 201.7 1057.3 196.3 1085.2 196C1113 195.7 1141 200.3 1168.8 206.7C1196.7 213 1224.3 221 1252.2 223.8C1280 226.7 1308 224.3 1335.8 222.2C1363.7 220 1391.3 218 1419.2 216.2C1447 214.3 1475 212.7 1502.8 214C1530.7 215.3 1558.3 219.7 1586.2 215.7C1614 211.7 1642 199.3 1669.8 194.5C1697.7 189.7 1725.3 192.3 1753.2 192.7C1781 193 1809 191 1836.8 190C1864.7 189 1892.3 189 1906.2 189L1920 189L1920 301L1906.2 301C1892.3 301 1864.7 301 1836.8 301C1809 301 1781 301 1753.2 301C1725.3 301 1697.7 301 1669.8 301C1642 301 1614 301 1586.2 301C1558.3 301 1530.7 301 1502.8 301C1475 301 1447 301 1419.2 301C1391.3 301 1363.7 301 1335.8 301C1308 301 1280 301 1252.2 301C1224.3 301 1196.7 301 1168.8 301C1141 301 1113 301 1085.2 301C1057.3 301 1029.7 301 1001.8 301C974 301 946 301 918.2 301C890.3 301 862.7 301 834.8 301C807 301 779 301 751.2 301C723.3 301 695.7 301 667.8 301C640 301 612 301 584.2 301C556.3 301 528.7 301 500.8 301C473 301 445 301 417.2 301C389.3 301 361.7 301 333.8 301C306 301 278 301 250.2 301C222.3 301 194.7 301 166.8 301C139 301 111 301 83.2 301C55.3 301 27.7 301 13.8 301L0 301Z" fill="#311b3933"></path><path d="M0 240L13.8 241.8C27.7 243.7 55.3 247.3 83.2 243.7C111 240 139 229 166.8 224.8C194.7 220.7 222.3 223.3 250.2 224.7C278 226 306 226 333.8 229.2C361.7 232.3 389.3 238.7 417.2 240.3C445 242 473 239 500.8 238.3C528.7 237.7 556.3 239.3 584.2 240.8C612 242.3 640 243.7 667.8 243.5C695.7 243.3 723.3 241.7 751.2 239.3C779 237 807 234 834.8 234.5C862.7 235 890.3 239 918.2 236.8C946 234.7 974 226.3 1001.8 225.3C1029.7 224.3 1057.3 230.7 1085.2 236C1113 241.3 1141 245.7 1168.8 245C1196.7 244.3 1224.3 238.7 1252.2 237.5C1280 236.3 1308 239.7 1335.8 240.8C1363.7 242 1391.3 241 1419.2 237.3C1447 233.7 1475 227.3 1502.8 223.3C1530.7 219.3 1558.3 217.7 1586.2 215.8C1614 214 1642 212 1669.8 212.7C1697.7 213.3 1725.3 216.7 1753.2 218.5C1781 220.3 1809 220.7 1836.8 219.8C1864.7 219 1892.3 217 1906.2 216L1920 215L1920 301L1906.2 301C1892.3 301 1864.7 301 1836.8 301C1809 301 1781 301 1753.2 301C1725.3 301 1697.7 301 1669.8 301C1642 301 1614 301 1586.2 301C1558.3 301 1530.7 301 1502.8 301C1475 301 1447 301 1419.2 301C1391.3 301 1363.7 301 1335.8 301C1308 301 1280 301 1252.2 301C1224.3 301 1196.7 301 1168.8 301C1141 301 1113 301 1085.2 301C1057.3 301 1029.7 301 1001.8 301C974 301 946 301 918.2 301C890.3 301 862.7 301 834.8 301C807 301 779 301 751.2 301C723.3 301 695.7 301 667.8 301C640 301 612 301 584.2 301C556.3 301 528.7 301 500.8 301C473 301 445 301 417.2 301C389.3 301 361.7 301 333.8 301C306 301 278 301 250.2 301C222.3 301 194.7 301 166.8 301C139 301 111 301 83.2 301C55.3 301 27.7 301 13.8 301L0 301Z" fill="#351f3d33"></path><path d="M0 269L13.8 266.5C27.7 264 55.3 259 83.2 256.2C111 253.3 139 252.7 166.8 256C194.7 259.3 222.3 266.7 250.2 266C278 265.3 306 256.7 333.8 256C361.7 255.3 389.3 262.7 417.2 262.3C445 262 473 254 500.8 250.3C528.7 246.7 556.3 247.3 584.2 245.3C612 243.3 640 238.7 667.8 240.8C695.7 243 723.3 252 751.2 256.3C779 260.7 807 260.3 834.8 259.7C862.7 259 890.3 258 918.2 259.3C946 260.7 974 264.3 1001.8 266.3C1029.7 268.3 1057.3 268.7 1085.2 269.8C1113 271 1141 273 1168.8 268.5C1196.7 264 1224.3 253 1252.2 247.7C1280 242.3 1308 242.7 1335.8 245.7C1363.7 248.7 1391.3 254.3 1419.2 257.3C1447 260.3 1475 260.7 1502.8 261.7C1530.7 262.7 1558.3 264.3 1586.2 260.2C1614 256 1642 246 1669.8 243.8C1697.7 241.7 1725.3 247.3 1753.2 253.3C1781 259.3 1809 265.7 1836.8 266.5C1864.7 267.3 1892.3 262.7 1906.2 260.3L1920 258L1920 301L1906.2 301C1892.3 301 1864.7 301 1836.8 301C1809 301 1781 301 1753.2 301C1725.3 301 1697.7 301 1669.8 301C1642 301 1614 301 1586.2 301C1558.3 301 1530.7 301 1502.8 301C1475 301 1447 301 1419.2 301C1391.3 301 1363.7 301 1335.8 301C1308 301 1280 301 1252.2 301C1224.3 301 1196.7 301 1168.8 301C1141 301 1113 301 1085.2 301C1057.3 301 1029.7 301 1001.8 301C974 301 946 301 918.2 301C890.3 301 862.7 301 834.8 301C807 301 779 301 751.2 301C723.3 301 695.7 301 667.8 301C640 301 612 301 584.2 301C556.3 301 528.7 301 500.8 301C473 301 445 301 417.2 301C389.3 301 361.7 301 333.8 301C306 301 278 301 250.2 301C222.3 301 194.7 301 166.8 301C139 301 111 301 83.2 301C55.3 301 27.7 301 13.8 301L0 301Z" fill="#39224133"></path><path d="M0 279L13.8 281.8C27.7 284.7 55.3 290.3 83.2 293.3C111 296.3 139 296.7 166.8 292C194.7 287.3 222.3 277.7 250.2 272.8C278 268 306 268 333.8 269.3C361.7 270.7 389.3 273.3 417.2 272.3C445 271.3 473 266.7 500.8 266.3C528.7 266 556.3 270 584.2 275.7C612 281.3 640 288.7 667.8 287.8C695.7 287 723.3 278 751.2 277.8C779 277.7 807 286.3 834.8 286.8C862.7 287.3 890.3 279.7 918.2 277.3C946 275 974 278 1001.8 281C1029.7 284 1057.3 287 1085.2 285.7C1113 284.3 1141 278.7 1168.8 274.8C1196.7 271 1224.3 269 1252.2 266.2C1280 263.3 1308 259.7 1335.8 258.7C1363.7 257.7 1391.3 259.3 1419.2 262.7C1447 266 1475 271 1502.8 271C1530.7 271 1558.3 266 1586.2 265.7C1614 265.3 1642 269.7 1669.8 270.7C1697.7 271.7 1725.3 269.3 1753.2 271.7C1781 274 1809 281 1836.8 285.7C1864.7 290.3 1892.3 292.7 1906.2 293.8L1920 295L1920 301L1906.2 301C1892.3 301 1864.7 301 1836.8 301C1809 301 1781 301 1753.2 301C1725.3 301 1697.7 301 1669.8 301C1642 301 1614 301 1586.2 301C1558.3 301 1530.7 301 1502.8 301C1475 301 1447 301 1419.2 301C1391.3 301 1363.7 301 1335.8 301C1308 301 1280 301 1252.2 301C1224.3 301 1196.7 301 1168.8 301C1141 301 1113 301 1085.2 301C1057.3 301 1029.7 301 1001.8 301C974 301 946 301 918.2 301C890.3 301 862.7 301 834.8 301C807 301 779 301 751.2 301C723.3 301 695.7 301 667.8 301C640 301 612 301 584.2 301C556.3 301 528.7 301 500.8 301C473 301 445 301 417.2 301C389.3 301 361.7 301 333.8 301C306 301 278 301 250.2 301C222.3 301 194.7 301 166.8 301C139 301 111 301 83.2 301C55.3 301 27.7 301 13.8 301L0 301Z" fill="#3d2645"></path></svg>
