<svg id="visual" viewBox="0 0 1920 300" width="1920" height="300" xmlns="http://www.w3.org/2000/svg" xmlns:xlink="http://www.w3.org/1999/xlink" version="1.1"><path d="M0 61L83 61L83 70L167 70L167 64L250 64L250 61L334 61L334 52L417 52L417 55L501 55L501 58L584 58L584 70L668 70L668 43L751 43L751 64L835 64L835 79L918 79L918 61L1002 61L1002 76L1085 76L1085 49L1169 49L1169 55L1252 55L1252 58L1336 58L1336 64L1419 64L1419 76L1503 76L1503 67L1586 67L1586 58L1670 58L1670 67L1753 67L1753 76L1837 76L1837 46L1920 46L1920 52L1920 0L1920 0L1837 0L1837 0L1753 0L1753 0L1670 0L1670 0L1586 0L1586 0L1503 0L1503 0L1419 0L1419 0L1336 0L1336 0L1252 0L1252 0L1169 0L1169 0L1085 0L1085 0L1002 0L1002 0L918 0L918 0L835 0L835 0L751 0L751 0L668 0L668 0L584 0L584 0L501 0L501 0L417 0L417 0L334 0L334 0L250 0L250 0L167 0L167 0L83 0L83 0L0 0Z" fill="#306bac"></path><path d="M0 115L83 115L83 121L167 121L167 106L250 106L250 115L334 115L334 118L417 118L417 130L501 130L501 109L584 109L584 127L668 127L668 103L751 103L751 124L835 124L835 118L918 118L918 115L1002 115L1002 121L1085 121L1085 112L1169 112L1169 106L1252 106L1252 100L1336 100L1336 115L1419 115L1419 115L1503 115L1503 127L1586 127L1586 127L1670 127L1670 118L1753 118L1753 127L1837 127L1837 112L1920 112L1920 127L1920 50L1920 44L1837 44L1837 74L1753 74L1753 65L1670 65L1670 56L1586 56L1586 65L1503 65L1503 74L1419 74L1419 62L1336 62L1336 56L1252 56L1252 53L1169 53L1169 47L1085 47L1085 74L1002 74L1002 59L918 59L918 77L835 77L835 62L751 62L751 41L668 41L668 68L584 68L584 56L501 56L501 53L417 53L417 50L334 50L334 59L250 59L250 62L167 62L167 68L83 68L83 59L0 59Z" fill="#366fb2"></path><path d="M0 124L83 124L83 133L167 133L167 115L250 115L250 124L334 124L334 130L417 130L417 145L501 145L501 118L584 118L584 136L668 136L668 112L751 112L751 133L835 133L835 127L918 127L918 124L1002 124L1002 133L1085 133L1085 121L1169 121L1169 121L1252 121L1252 115L1336 115L1336 127L1419 127L1419 124L1503 124L1503 142L1586 142L1586 139L1670 139L1670 130L1753 130L1753 136L1837 136L1837 127L1920 127L1920 142L1920 125L1920 110L1837 110L1837 125L1753 125L1753 116L1670 116L1670 125L1586 125L1586 125L1503 125L1503 113L1419 113L1419 113L1336 113L1336 98L1252 98L1252 104L1169 104L1169 110L1085 110L1085 119L1002 119L1002 113L918 113L918 116L835 116L835 122L751 122L751 101L668 101L668 125L584 125L584 107L501 107L501 128L417 128L417 116L334 116L334 113L250 113L250 104L167 104L167 119L83 119L83 113L0 113Z" fill="#3c74b7"></path><path d="M0 172L83 172L83 163L167 163L167 151L250 151L250 163L334 163L334 163L417 163L417 172L501 172L501 160L584 160L584 166L668 166L668 154L751 154L751 172L835 172L835 163L918 163L918 169L1002 169L1002 169L1085 169L1085 160L1169 160L1169 166L1252 166L1252 154L1336 154L1336 157L1419 157L1419 172L1503 172L1503 166L1586 166L1586 166L1670 166L1670 163L1753 163L1753 163L1837 163L1837 172L1920 172L1920 175L1920 140L1920 125L1837 125L1837 134L1753 134L1753 128L1670 128L1670 137L1586 137L1586 140L1503 140L1503 122L1419 122L1419 125L1336 125L1336 113L1252 113L1252 119L1169 119L1169 119L1085 119L1085 131L1002 131L1002 122L918 122L918 125L835 125L835 131L751 131L751 110L668 110L668 134L584 134L584 116L501 116L501 143L417 143L417 128L334 128L334 122L250 122L250 113L167 113L167 131L83 131L83 122L0 122Z" fill="#4278bd"></path><path d="M0 181L83 181L83 172L167 172L167 166L250 166L250 172L334 172L334 178L417 178L417 187L501 187L501 169L584 169L584 175L668 175L668 169L751 169L751 181L835 181L835 172L918 172L918 181L1002 181L1002 178L1085 178L1085 175L1169 175L1169 178L1252 178L1252 169L1336 169L1336 172L1419 172L1419 184L1503 184L1503 175L1586 175L1586 178L1670 178L1670 178L1753 178L1753 172L1837 172L1837 184L1920 184L1920 184L1920 173L1920 170L1837 170L1837 161L1753 161L1753 161L1670 161L1670 164L1586 164L1586 164L1503 164L1503 170L1419 170L1419 155L1336 155L1336 152L1252 152L1252 164L1169 164L1169 158L1085 158L1085 167L1002 167L1002 167L918 167L918 161L835 161L835 170L751 170L751 152L668 152L668 164L584 164L584 158L501 158L501 170L417 170L417 161L334 161L334 161L250 161L250 149L167 149L167 161L83 161L83 170L0 170Z" fill="#487cc2"></path><path d="M0 202L83 202L83 199L167 199L167 199L250 199L250 205L334 205L334 202L417 202L417 208L501 208L501 196L584 196L584 205L668 205L668 202L751 202L751 205L835 205L835 205L918 205L918 202L1002 202L1002 199L1085 199L1085 208L1169 208L1169 208L1252 208L1252 202L1336 202L1336 202L1419 202L1419 205L1503 205L1503 199L1586 199L1586 199L1670 199L1670 205L1753 205L1753 190L1837 190L1837 202L1920 202L1920 202L1920 182L1920 182L1837 182L1837 170L1753 170L1753 176L1670 176L1670 176L1586 176L1586 173L1503 173L1503 182L1419 182L1419 170L1336 170L1336 167L1252 167L1252 176L1169 176L1169 173L1085 173L1085 176L1002 176L1002 179L918 179L918 170L835 170L835 179L751 179L751 167L668 167L668 173L584 173L584 167L501 167L501 185L417 185L417 176L334 176L334 170L250 170L250 164L167 164L167 170L83 170L83 179L0 179Z" fill="#4d81c8"></path><path d="M0 223L83 223L83 220L167 220L167 220L250 220L250 226L334 226L334 226L417 226L417 232L501 232L501 223L584 223L584 229L668 229L668 220L751 220L751 226L835 226L835 226L918 226L918 229L1002 229L1002 223L1085 223L1085 229L1169 229L1169 229L1252 229L1252 229L1336 229L1336 229L1419 229L1419 220L1503 220L1503 223L1586 223L1586 223L1670 223L1670 229L1753 229L1753 217L1837 217L1837 223L1920 223L1920 217L1920 200L1920 200L1837 200L1837 188L1753 188L1753 203L1670 203L1670 197L1586 197L1586 197L1503 197L1503 203L1419 203L1419 200L1336 200L1336 200L1252 200L1252 206L1169 206L1169 206L1085 206L1085 197L1002 197L1002 200L918 200L918 203L835 203L835 203L751 203L751 200L668 200L668 203L584 203L584 194L501 194L501 206L417 206L417 200L334 200L334 203L250 203L250 197L167 197L167 197L83 197L83 200L0 200Z" fill="#5385ce"></path><path d="M0 235L83 235L83 232L167 232L167 232L250 232L250 238L334 238L334 235L417 235L417 244L501 244L501 235L584 235L584 238L668 238L668 232L751 232L751 238L835 238L835 238L918 238L918 238L1002 238L1002 232L1085 232L1085 241L1169 241L1169 241L1252 241L1252 238L1336 238L1336 241L1419 241L1419 229L1503 229L1503 232L1586 232L1586 232L1670 232L1670 238L1753 238L1753 229L1837 229L1837 235L1920 235L1920 229L1920 215L1920 221L1837 221L1837 215L1753 215L1753 227L1670 227L1670 221L1586 221L1586 221L1503 221L1503 218L1419 218L1419 227L1336 227L1336 227L1252 227L1252 227L1169 227L1169 227L1085 227L1085 221L1002 221L1002 227L918 227L918 224L835 224L835 224L751 224L751 218L668 218L668 227L584 227L584 221L501 221L501 230L417 230L417 224L334 224L334 224L250 224L250 218L167 218L167 218L83 218L83 221L0 221Z" fill="#588ad4"></path><path d="M0 253L83 253L83 250L167 250L167 253L250 253L250 256L334 256L334 253L417 253L417 262L501 262L501 250L584 250L584 265L668 265L668 253L751 253L751 256L835 256L835 259L918 259L918 256L1002 256L1002 250L1085 250L1085 262L1169 262L1169 259L1252 259L1252 262L1336 262L1336 256L1419 256L1419 253L1503 253L1503 256L1586 256L1586 247L1670 247L1670 259L1753 259L1753 253L1837 253L1837 256L1920 256L1920 247L1920 227L1920 233L1837 233L1837 227L1753 227L1753 236L1670 236L1670 230L1586 230L1586 230L1503 230L1503 227L1419 227L1419 239L1336 239L1336 236L1252 236L1252 239L1169 239L1169 239L1085 239L1085 230L1002 230L1002 236L918 236L918 236L835 236L835 236L751 236L751 230L668 230L668 236L584 236L584 233L501 233L501 242L417 242L417 233L334 233L334 236L250 236L250 230L167 230L167 230L83 230L83 233L0 233Z" fill="#5e8ed9"></path><path d="M0 265L83 265L83 265L167 265L167 265L250 265L250 268L334 268L334 265L417 265L417 274L501 274L501 268L584 268L584 274L668 274L668 262L751 262L751 268L835 268L835 268L918 268L918 274L1002 274L1002 268L1085 268L1085 271L1169 271L1169 271L1252 271L1252 274L1336 274L1336 268L1419 268L1419 268L1503 268L1503 265L1586 265L1586 262L1670 262L1670 274L1753 274L1753 271L1837 271L1837 268L1920 268L1920 262L1920 245L1920 254L1837 254L1837 251L1753 251L1753 257L1670 257L1670 245L1586 245L1586 254L1503 254L1503 251L1419 251L1419 254L1336 254L1336 260L1252 260L1252 257L1169 257L1169 260L1085 260L1085 248L1002 248L1002 254L918 254L918 257L835 257L835 254L751 254L751 251L668 251L668 263L584 263L584 248L501 248L501 260L417 260L417 251L334 251L334 254L250 254L250 251L167 251L167 248L83 248L83 251L0 251Z" fill="#6493df"></path><path d="M0 283L83 283L83 286L167 286L167 283L250 283L250 283L334 283L334 283L417 283L417 286L501 286L501 286L584 286L584 286L668 286L668 283L751 283L751 286L835 286L835 283L918 283L918 286L1002 286L1002 289L1085 289L1085 286L1169 286L1169 283L1252 283L1252 286L1336 286L1336 286L1419 286L1419 283L1503 283L1503 286L1586 286L1586 283L1670 283L1670 289L1753 289L1753 283L1837 283L1837 286L1920 286L1920 283L1920 260L1920 266L1837 266L1837 269L1753 269L1753 272L1670 272L1670 260L1586 260L1586 263L1503 263L1503 266L1419 266L1419 266L1336 266L1336 272L1252 272L1252 269L1169 269L1169 269L1085 269L1085 266L1002 266L1002 272L918 272L918 266L835 266L835 266L751 266L751 260L668 260L668 272L584 272L584 266L501 266L501 272L417 272L417 263L334 263L334 266L250 266L250 263L167 263L167 263L83 263L83 263L0 263Z" fill="#6997e5"></path><path d="M0 301L83 301L83 301L167 301L167 301L250 301L250 301L334 301L334 301L417 301L417 301L501 301L501 301L584 301L584 301L668 301L668 301L751 301L751 301L835 301L835 301L918 301L918 301L1002 301L1002 301L1085 301L1085 301L1169 301L1169 301L1252 301L1252 301L1336 301L1336 301L1419 301L1419 301L1503 301L1503 301L1586 301L1586 301L1670 301L1670 301L1753 301L1753 301L1837 301L1837 301L1920 301L1920 301L1920 281L1920 284L1837 284L1837 281L1753 281L1753 287L1670 287L1670 281L1586 281L1586 284L1503 284L1503 281L1419 281L1419 284L1336 284L1336 284L1252 284L1252 281L1169 281L1169 284L1085 284L1085 287L1002 287L1002 284L918 284L918 281L835 281L835 284L751 284L751 281L668 281L668 284L584 284L584 284L501 284L501 284L417 284L417 281L334 281L334 281L250 281L250 281L167 281L167 284L83 284L83 281L0 281Z" fill="#6f9ceb"></path></svg>