<svg id="visual" viewBox="0 0 1920 300" width="1920" height="300" xmlns="http://www.w3.org/2000/svg" xmlns:xlink="http://www.w3.org/1999/xlink" version="1.1"><path d="M0 16L83 22L167 19L250 10L334 10L417 16L501 10L584 13L668 10L751 10L835 10L918 16L1002 19L1085 16L1169 19L1252 16L1336 16L1419 13L1503 10L1586 19L1670 13L1753 13L1837 10L1920 13L1920 0L1837 0L1753 0L1670 0L1586 0L1503 0L1419 0L1336 0L1252 0L1169 0L1085 0L1002 0L918 0L835 0L751 0L668 0L584 0L501 0L417 0L334 0L250 0L167 0L83 0L0 0Z" fill="#da4167"></path><path d="M0 40L83 43L167 31L250 22L334 34L417 28L501 28L584 25L668 31L751 31L835 28L918 34L1002 46L1085 40L1169 43L1252 34L1336 31L1419 37L1503 37L1586 31L1670 28L1753 28L1837 22L1920 25L1920 11L1837 8L1753 11L1670 11L1586 17L1503 8L1419 11L1336 14L1252 14L1169 17L1085 14L1002 17L918 14L835 8L751 8L668 8L584 11L501 8L417 14L334 8L250 8L167 17L83 20L0 14Z" fill="#de547d"></path><path d="M0 58L83 52L167 43L250 37L334 46L417 46L501 46L584 43L668 46L751 49L835 37L918 52L1002 58L1085 55L1169 61L1252 43L1336 49L1419 52L1503 52L1586 49L1670 40L1753 46L1837 40L1920 34L1920 23L1837 20L1753 26L1670 26L1586 29L1503 35L1419 35L1336 29L1252 32L1169 41L1085 38L1002 44L918 32L835 26L751 29L668 29L584 23L501 26L417 26L334 32L250 20L167 29L83 41L0 38Z" fill="#e06693"></path><path d="M0 103L83 91L167 88L250 70L334 70L417 70L501 73L584 70L668 70L751 88L835 94L918 73L1002 97L1085 88L1169 82L1252 97L1336 70L1419 70L1503 85L1586 70L1670 61L1753 85L1837 79L1920 64L1920 32L1837 38L1753 44L1670 38L1586 47L1503 50L1419 50L1336 47L1252 41L1169 59L1085 53L1002 56L918 50L835 35L751 47L668 44L584 41L501 44L417 44L334 44L250 35L167 41L83 50L0 56Z" fill="#e077a6"></path><path d="M0 166L83 154L167 139L250 166L334 121L417 151L501 136L584 139L668 115L751 124L835 163L918 148L1002 148L1085 154L1169 157L1252 178L1336 157L1419 118L1503 136L1586 136L1670 103L1753 136L1837 133L1920 115L1920 62L1837 77L1753 83L1670 59L1586 68L1503 83L1419 68L1336 68L1252 95L1169 80L1085 86L1002 95L918 71L835 92L751 86L668 68L584 68L501 71L417 68L334 68L250 68L167 86L83 89L0 101Z" fill="#e088b7"></path><path d="M0 184L83 181L167 160L250 193L334 145L417 181L501 160L584 157L668 133L751 142L835 184L918 166L1002 166L1085 184L1169 175L1252 196L1336 187L1419 145L1503 163L1586 151L1670 133L1753 166L1837 166L1920 145L1920 113L1837 131L1753 134L1670 101L1586 134L1503 134L1419 116L1336 155L1252 176L1169 155L1085 152L1002 146L918 146L835 161L751 122L668 113L584 137L501 134L417 149L334 119L250 164L167 137L83 152L0 164Z" fill="#df98c6"></path><path d="M0 205L83 196L167 184L250 205L334 163L417 199L501 178L584 169L668 157L751 163L835 199L918 178L1002 178L1085 205L1169 193L1252 214L1336 211L1419 160L1503 175L1586 172L1670 145L1753 190L1837 184L1920 163L1920 143L1837 164L1753 164L1670 131L1586 149L1503 161L1419 143L1336 185L1252 194L1169 173L1085 182L1002 164L918 164L835 182L751 140L668 131L584 155L501 158L417 179L334 143L250 191L167 158L83 179L0 182Z" fill="#dea8d3"></path><path d="M0 211L83 211L167 190L250 217L334 172L417 208L501 187L584 184L668 169L751 172L835 205L918 187L1002 190L1085 220L1169 199L1252 220L1336 217L1419 175L1503 184L1586 184L1670 151L1753 205L1837 190L1920 178L1920 161L1837 182L1753 188L1670 143L1586 170L1503 173L1419 158L1336 209L1252 212L1169 191L1085 203L1002 176L918 176L835 197L751 161L668 155L584 167L501 176L417 197L334 161L250 203L167 182L83 194L0 203Z" fill="#ddb7de"></path><path d="M0 247L83 247L167 253L250 256L334 247L417 241L501 250L584 256L668 256L751 244L835 253L918 244L1002 247L1085 265L1169 253L1252 253L1336 262L1419 247L1503 244L1586 241L1670 235L1753 256L1837 238L1920 247L1920 176L1837 188L1753 203L1670 149L1586 182L1503 182L1419 173L1336 215L1252 218L1169 197L1085 218L1002 188L918 185L835 203L751 170L668 167L584 182L501 185L417 206L334 170L250 215L167 188L83 209L0 209Z" fill="#dfc6e6"></path><path d="M0 256L83 256L167 265L250 271L334 253L417 250L501 265L584 268L668 262L751 259L835 259L918 256L1002 259L1085 274L1169 262L1252 268L1336 277L1419 262L1503 256L1586 253L1670 247L1753 265L1837 253L1920 259L1920 245L1837 236L1753 254L1670 233L1586 239L1503 242L1419 245L1336 260L1252 251L1169 251L1085 263L1002 245L918 242L835 251L751 242L668 254L584 254L501 248L417 239L334 245L250 254L167 251L83 245L0 245Z" fill="#e2d4ed"></path><path d="M0 274L83 268L167 283L250 280L334 268L417 268L501 277L584 283L668 277L751 277L835 277L918 274L1002 274L1085 286L1169 280L1252 283L1336 286L1419 271L1503 274L1586 265L1670 262L1753 274L1837 262L1920 274L1920 257L1837 251L1753 263L1670 245L1586 251L1503 254L1419 260L1336 275L1252 266L1169 260L1085 272L1002 257L918 254L835 257L751 257L668 260L584 266L501 263L417 248L334 251L250 269L167 263L83 254L0 254Z" fill="#e8e2f1"></path><path d="M0 301L83 301L167 301L250 301L334 301L417 301L501 301L584 301L668 301L751 301L835 301L918 301L1002 301L1085 301L1169 301L1252 301L1336 301L1419 301L1503 301L1586 301L1670 301L1753 301L1837 301L1920 301L1920 272L1837 260L1753 272L1670 260L1586 263L1503 272L1419 269L1336 284L1252 281L1169 278L1085 284L1002 272L918 272L835 275L751 275L668 275L584 281L501 275L417 266L334 266L250 278L167 281L83 266L0 272Z" fill="#f0eff4"></path></svg>