<svg id="visual" viewBox="0 0 1920 300" width="1920" height="300" xmlns="http://www.w3.org/2000/svg" xmlns:xlink="http://www.w3.org/1999/xlink" version="1.1"><path d="M0 7L13.8 8C27.7 9 55.3 11 83.2 11C111 11 139 9 166.8 10.5C194.7 12 222.3 17 250.2 17.5C278 18 306 14 333.8 14C361.7 14 389.3 18 417.2 19C445 20 473 18 500.8 15.5C528.7 13 556.3 10 584.2 11C612 12 640 17 667.8 15.8C695.7 14.7 723.3 7.3 751.2 3.7C779 0 807 0 834.8 1.2C862.7 2.3 890.3 4.7 918.2 8.3C946 12 974 17 1001.8 16.5C1029.7 16 1057.3 10 1085.2 7C1113 4 1141 4 1168.8 4.5C1196.7 5 1224.3 6 1252.2 9.5C1280 13 1308 19 1335.8 20.5C1363.7 22 1391.3 19 1419.2 18C1447 17 1475 18 1502.8 18.5C1530.7 19 1558.3 19 1586.2 17.5C1614 16 1642 13 1669.8 13C1697.7 13 1725.3 16 1753.2 15.5C1781 15 1809 11 1836.8 10.5C1864.7 10 1892.3 13 1906.2 14.5L1920 16L1920 0L1906.2 0C1892.3 0 1864.7 0 1836.8 0C1809 0 1781 0 1753.2 0C1725.3 0 1697.7 0 1669.8 0C1642 0 1614 0 1586.2 0C1558.3 0 1530.7 0 1502.8 0C1475 0 1447 0 1419.2 0C1391.3 0 1363.7 0 1335.8 0C1308 0 1280 0 1252.2 0C1224.3 0 1196.7 0 1168.8 0C1141 0 1113 0 1085.2 0C1057.3 0 1029.7 0 1001.8 0C974 0 946 0 918.2 0C890.3 0 862.7 0 834.8 0C807 0 779 0 751.2 0C723.3 0 695.7 0 667.8 0C640 0 612 0 584.2 0C556.3 0 528.7 0 500.8 0C473 0 445 0 417.2 0C389.3 0 361.7 0 333.8 0C306 0 278 0 250.2 0C222.3 0 194.7 0 166.8 0C139 0 111 0 83.2 0C55.3 0 27.7 0 13.8 0L0 0Z" fill="#3d2645"></path><path d="M0 34L13.8 33C27.7 32 55.3 30 83.2 28C111 26 139 24 166.8 29C194.7 34 222.3 46 250.2 45C278 44 306 30 333.8 27C361.7 24 389.3 32 417.2 34.5C445 37 473 34 500.8 31.5C528.7 29 556.3 27 584.2 26.5C612 26 640 27 667.8 30C695.7 33 723.3 38 751.2 39.5C779 41 807 39 834.8 39C862.7 39 890.3 41 918.2 40.5C946 40 974 37 1001.8 36C1029.7 35 1057.3 36 1085.2 33C1113 30 1141 23 1168.8 19C1196.7 15 1224.3 14 1252.2 17.5C1280 21 1308 29 1335.8 30C1363.7 31 1391.3 25 1419.2 26.5C1447 28 1475 37 1502.8 37.5C1530.7 38 1558.3 30 1586.2 24C1614 18 1642 14 1669.8 20C1697.7 26 1725.3 42 1753.2 45.5C1781 49 1809 40 1836.8 36C1864.7 32 1892.3 33 1906.2 33.5L1920 34L1920 14L1906.2 12.5C1892.3 11 1864.7 8 1836.8 8.5C1809 9 1781 13 1753.2 13.5C1725.3 14 1697.7 11 1669.8 11C1642 11 1614 14 1586.2 15.5C1558.3 17 1530.7 17 1502.8 16.5C1475 16 1447 15 1419.2 16C1391.3 17 1363.7 20 1335.8 18.5C1308 17 1280 11 1252.2 7.5C1224.3 4 1196.7 3 1168.8 2.5C1141 2 1113 2 1085.2 5C1057.3 8 1029.7 14 1001.8 14.5C974 15 946 10 918.2 6.7C890.3 3.3 862.7 1.7 834.8 0.8C807 0 779 0 751.2 3.3C723.3 6.7 695.7 13.3 667.8 14.2C640 15 612 10 584.2 9C556.3 8 528.7 11 500.8 13.5C473 16 445 18 417.2 17C389.3 16 361.7 12 333.8 12C306 12 278 16 250.2 15.5C222.3 15 194.7 10 166.8 8.5C139 7 111 9 83.2 9C55.3 9 27.7 7 13.8 6L0 5Z" fill="#422749"></path><path d="M0 52L13.8 48C27.7 44 55.3 36 83.2 34.5C111 33 139 38 166.8 46.5C194.7 55 222.3 67 250.2 67C278 67 306 55 333.8 50C361.7 45 389.3 47 417.2 46C445 45 473 41 500.8 37C528.7 33 556.3 29 584.2 32C612 35 640 45 667.8 48C695.7 51 723.3 47 751.2 45.5C779 44 807 45 834.8 48C862.7 51 890.3 56 918.2 56C946 56 974 51 1001.8 49C1029.7 47 1057.3 48 1085.2 46C1113 44 1141 39 1168.8 34.5C1196.7 30 1224.3 26 1252.2 26.5C1280 27 1308 32 1335.8 34C1363.7 36 1391.3 35 1419.2 37.5C1447 40 1475 46 1502.8 47.5C1530.7 49 1558.3 46 1586.2 43.5C1614 41 1642 39 1669.8 42.5C1697.7 46 1725.3 55 1753.2 56.5C1781 58 1809 52 1836.8 50C1864.7 48 1892.3 50 1906.2 51L1920 52L1920 32L1906.2 31.5C1892.3 31 1864.7 30 1836.8 34C1809 38 1781 47 1753.2 43.5C1725.3 40 1697.7 24 1669.8 18C1642 12 1614 16 1586.2 22C1558.3 28 1530.7 36 1502.8 35.5C1475 35 1447 26 1419.2 24.5C1391.3 23 1363.7 29 1335.8 28C1308 27 1280 19 1252.2 15.5C1224.3 12 1196.7 13 1168.8 17C1141 21 1113 28 1085.2 31C1057.3 34 1029.7 33 1001.8 34C974 35 946 38 918.2 38.5C890.3 39 862.7 37 834.8 37C807 37 779 39 751.2 37.5C723.3 36 695.7 31 667.8 28C640 25 612 24 584.2 24.5C556.3 25 528.7 27 500.8 29.5C473 32 445 35 417.2 32.5C389.3 30 361.7 22 333.8 25C306 28 278 42 250.2 43C222.3 44 194.7 32 166.8 27C139 22 111 24 83.2 26C55.3 28 27.7 30 13.8 31L0 32Z" fill="#48274c"></path><path d="M0 70L13.8 72.5C27.7 75 55.3 80 83.2 77.5C111 75 139 65 166.8 68.5C194.7 72 222.3 89 250.2 92C278 95 306 84 333.8 77C361.7 70 389.3 67 417.2 66C445 65 473 66 500.8 67.5C528.7 69 556.3 71 584.2 79.5C612 88 640 103 667.8 107C695.7 111 723.3 104 751.2 94C779 84 807 71 834.8 75C862.7 79 890.3 100 918.2 105C946 110 974 99 1001.8 90.5C1029.7 82 1057.3 76 1085.2 71.5C1113 67 1141 64 1168.8 63.5C1196.7 63 1224.3 65 1252.2 70C1280 75 1308 83 1335.8 90C1363.7 97 1391.3 103 1419.2 106.5C1447 110 1475 111 1502.8 100C1530.7 89 1558.3 66 1586.2 56.5C1614 47 1642 51 1669.8 57C1697.7 63 1725.3 71 1753.2 70C1781 69 1809 59 1836.8 57.5C1864.7 56 1892.3 63 1906.2 66.5L1920 70L1920 50L1906.2 49C1892.3 48 1864.7 46 1836.8 48C1809 50 1781 56 1753.2 54.5C1725.3 53 1697.7 44 1669.8 40.5C1642 37 1614 39 1586.2 41.5C1558.3 44 1530.7 47 1502.8 45.5C1475 44 1447 38 1419.2 35.5C1391.3 33 1363.7 34 1335.8 32C1308 30 1280 25 1252.2 24.5C1224.3 24 1196.7 28 1168.8 32.5C1141 37 1113 42 1085.2 44C1057.3 46 1029.7 45 1001.8 47C974 49 946 54 918.2 54C890.3 54 862.7 49 834.8 46C807 43 779 42 751.2 43.5C723.3 45 695.7 49 667.8 46C640 43 612 33 584.2 30C556.3 27 528.7 31 500.8 35C473 39 445 43 417.2 44C389.3 45 361.7 43 333.8 48C306 53 278 65 250.2 65C222.3 65 194.7 53 166.8 44.5C139 36 111 31 83.2 32.5C55.3 34 27.7 42 13.8 46L0 50Z" fill="#4e2750"></path><path d="M0 100L13.8 98.5C27.7 97 55.3 94 83.2 98.5C111 103 139 115 166.8 119C194.7 123 222.3 119 250.2 124C278 129 306 143 333.8 145.5C361.7 148 389.3 139 417.2 126C445 113 473 96 500.8 89C528.7 82 556.3 85 584.2 94C612 103 640 118 667.8 135.5C695.7 153 723.3 173 751.2 177.5C779 182 807 171 834.8 168.5C862.7 166 890.3 172 918.2 168.5C946 165 974 152 1001.8 137C1029.7 122 1057.3 105 1085.2 113C1113 121 1141 154 1168.8 157C1196.7 160 1224.3 133 1252.2 129.5C1280 126 1308 146 1335.8 155.5C1363.7 165 1391.3 164 1419.2 159C1447 154 1475 145 1502.8 145.5C1530.7 146 1558.3 156 1586.2 143C1614 130 1642 94 1669.8 81C1697.7 68 1725.3 78 1753.2 94C1781 110 1809 132 1836.8 134.5C1864.7 137 1892.3 120 1906.2 111.5L1920 103L1920 68L1906.2 64.5C1892.3 61 1864.7 54 1836.8 55.5C1809 57 1781 67 1753.2 68C1725.3 69 1697.7 61 1669.8 55C1642 49 1614 45 1586.2 54.5C1558.3 64 1530.7 87 1502.8 98C1475 109 1447 108 1419.2 104.5C1391.3 101 1363.7 95 1335.8 88C1308 81 1280 73 1252.2 68C1224.3 63 1196.7 61 1168.8 61.5C1141 62 1113 65 1085.2 69.5C1057.3 74 1029.7 80 1001.8 88.5C974 97 946 108 918.2 103C890.3 98 862.7 77 834.8 73C807 69 779 82 751.2 92C723.3 102 695.7 109 667.8 105C640 101 612 86 584.2 77.5C556.3 69 528.7 67 500.8 65.5C473 64 445 63 417.2 64C389.3 65 361.7 68 333.8 75C306 82 278 93 250.2 90C222.3 87 194.7 70 166.8 66.5C139 63 111 73 83.2 75.5C55.3 78 27.7 73 13.8 70.5L0 68Z" fill="#542753"></path><path d="M0 166L13.8 168C27.7 170 55.3 174 83.2 176.5C111 179 139 180 166.8 180.5C194.7 181 222.3 181 250.2 187C278 193 306 205 333.8 202C361.7 199 389.3 181 417.2 176C445 171 473 179 500.8 183C528.7 187 556.3 187 584.2 187C612 187 640 187 667.8 189.5C695.7 192 723.3 197 751.2 193.5C779 190 807 178 834.8 179C862.7 180 890.3 194 918.2 199.5C946 205 974 202 1001.8 200.5C1029.7 199 1057.3 199 1085.2 201C1113 203 1141 207 1168.8 203C1196.7 199 1224.3 187 1252.2 181C1280 175 1308 175 1335.8 182C1363.7 189 1391.3 203 1419.2 207.5C1447 212 1475 207 1502.8 207.5C1530.7 208 1558.3 214 1586.2 211.5C1614 209 1642 198 1669.8 194.5C1697.7 191 1725.3 195 1753.2 193C1781 191 1809 183 1836.8 182.5C1864.7 182 1892.3 189 1906.2 192.5L1920 196L1920 101L1906.2 109.5C1892.3 118 1864.7 135 1836.8 132.5C1809 130 1781 108 1753.2 92C1725.3 76 1697.7 66 1669.8 79C1642 92 1614 128 1586.2 141C1558.3 154 1530.7 144 1502.8 143.5C1475 143 1447 152 1419.2 157C1391.3 162 1363.7 163 1335.8 153.5C1308 144 1280 124 1252.2 127.5C1224.3 131 1196.7 158 1168.8 155C1141 152 1113 119 1085.2 111C1057.3 103 1029.7 120 1001.8 135C974 150 946 163 918.2 166.5C890.3 170 862.7 164 834.8 166.5C807 169 779 180 751.2 175.5C723.3 171 695.7 151 667.8 133.5C640 116 612 101 584.2 92C556.3 83 528.7 80 500.8 87C473 94 445 111 417.2 124C389.3 137 361.7 146 333.8 143.5C306 141 278 127 250.2 122C222.3 117 194.7 121 166.8 117C139 113 111 101 83.2 96.5C55.3 92 27.7 95 13.8 96.5L0 98Z" fill="#5a2756"></path><path d="M0 181L13.8 181.5C27.7 182 55.3 183 83.2 184.5C111 186 139 188 166.8 191.5C194.7 195 222.3 200 250.2 206C278 212 306 219 333.8 215.5C361.7 212 389.3 198 417.2 195.5C445 193 473 202 500.8 206C528.7 210 556.3 209 584.2 207C612 205 640 202 667.8 202.5C695.7 203 723.3 207 751.2 204C779 201 807 191 834.8 194.5C862.7 198 890.3 215 918.2 219C946 223 974 214 1001.8 209.5C1029.7 205 1057.3 205 1085.2 207C1113 209 1141 213 1168.8 209.5C1196.7 206 1224.3 195 1252.2 191C1280 187 1308 190 1335.8 196C1363.7 202 1391.3 211 1419.2 215C1447 219 1475 218 1502.8 219C1530.7 220 1558.3 223 1586.2 219.5C1614 216 1642 206 1669.8 204C1697.7 202 1725.3 208 1753.2 207.5C1781 207 1809 200 1836.8 197.5C1864.7 195 1892.3 197 1906.2 198L1920 199L1920 194L1906.2 190.5C1892.3 187 1864.7 180 1836.8 180.5C1809 181 1781 189 1753.2 191C1725.3 193 1697.7 189 1669.8 192.5C1642 196 1614 207 1586.2 209.5C1558.3 212 1530.7 206 1502.8 205.5C1475 205 1447 210 1419.2 205.5C1391.3 201 1363.7 187 1335.8 180C1308 173 1280 173 1252.2 179C1224.3 185 1196.7 197 1168.8 201C1141 205 1113 201 1085.2 199C1057.3 197 1029.7 197 1001.8 198.5C974 200 946 203 918.2 197.5C890.3 192 862.7 178 834.8 177C807 176 779 188 751.2 191.5C723.3 195 695.7 190 667.8 187.5C640 185 612 185 584.2 185C556.3 185 528.7 185 500.8 181C473 177 445 169 417.2 174C389.3 179 361.7 197 333.8 200C306 203 278 191 250.2 185C222.3 179 194.7 179 166.8 178.5C139 178 111 177 83.2 174.5C55.3 172 27.7 168 13.8 166L0 164Z" fill="#602758"></path><path d="M0 193L13.8 194.5C27.7 196 55.3 199 83.2 201C111 203 139 204 166.8 208.5C194.7 213 222.3 221 250.2 226C278 231 306 233 333.8 227.5C361.7 222 389.3 209 417.2 208C445 207 473 218 500.8 221C528.7 224 556.3 219 584.2 214C612 209 640 204 667.8 204C695.7 204 723.3 209 751.2 210C779 211 807 208 834.8 212.5C862.7 217 890.3 229 918.2 231.5C946 234 974 227 1001.8 222C1029.7 217 1057.3 214 1085.2 217C1113 220 1141 229 1168.8 226C1196.7 223 1224.3 208 1252.2 201.5C1280 195 1308 197 1335.8 204.5C1363.7 212 1391.3 225 1419.2 231C1447 237 1475 236 1502.8 235.5C1530.7 235 1558.3 235 1586.2 232C1614 229 1642 223 1669.8 220C1697.7 217 1725.3 217 1753.2 215.5C1781 214 1809 211 1836.8 209.5C1864.7 208 1892.3 208 1906.2 208L1920 208L1920 197L1906.2 196C1892.3 195 1864.7 193 1836.8 195.5C1809 198 1781 205 1753.2 205.5C1725.3 206 1697.7 200 1669.8 202C1642 204 1614 214 1586.2 217.5C1558.3 221 1530.7 218 1502.8 217C1475 216 1447 217 1419.2 213C1391.3 209 1363.7 200 1335.8 194C1308 188 1280 185 1252.2 189C1224.3 193 1196.7 204 1168.8 207.5C1141 211 1113 207 1085.2 205C1057.3 203 1029.7 203 1001.8 207.5C974 212 946 221 918.2 217C890.3 213 862.7 196 834.8 192.5C807 189 779 199 751.2 202C723.3 205 695.7 201 667.8 200.5C640 200 612 203 584.2 205C556.3 207 528.7 208 500.8 204C473 200 445 191 417.2 193.5C389.3 196 361.7 210 333.8 213.5C306 217 278 210 250.2 204C222.3 198 194.7 193 166.8 189.5C139 186 111 184 83.2 182.5C55.3 181 27.7 180 13.8 179.5L0 179Z" fill="#67265b"></path><path d="M0 226L13.8 222C27.7 218 55.3 210 83.2 209.5C111 209 139 216 166.8 226.5C194.7 237 222.3 251 250.2 253.5C278 256 306 247 333.8 240C361.7 233 389.3 228 417.2 230C445 232 473 241 500.8 246.5C528.7 252 556.3 254 584.2 249C612 244 640 232 667.8 226C695.7 220 723.3 220 751.2 219C779 218 807 216 834.8 223.5C862.7 231 890.3 248 918.2 255C946 262 974 259 1001.8 251C1029.7 243 1057.3 230 1085.2 234C1113 238 1141 259 1168.8 260C1196.7 261 1224.3 242 1252.2 234.5C1280 227 1308 231 1335.8 235C1363.7 239 1391.3 243 1419.2 247C1447 251 1475 255 1502.8 262C1530.7 269 1558.3 279 1586.2 277C1614 275 1642 261 1669.8 254C1697.7 247 1725.3 247 1753.2 247C1781 247 1809 247 1836.8 242C1864.7 237 1892.3 227 1906.2 222L1920 217L1920 206L1906.2 206C1892.3 206 1864.7 206 1836.8 207.5C1809 209 1781 212 1753.2 213.5C1725.3 215 1697.7 215 1669.8 218C1642 221 1614 227 1586.2 230C1558.3 233 1530.7 233 1502.8 233.5C1475 234 1447 235 1419.2 229C1391.3 223 1363.7 210 1335.8 202.5C1308 195 1280 193 1252.2 199.5C1224.3 206 1196.7 221 1168.8 224C1141 227 1113 218 1085.2 215C1057.3 212 1029.7 215 1001.8 220C974 225 946 232 918.2 229.5C890.3 227 862.7 215 834.8 210.5C807 206 779 209 751.2 208C723.3 207 695.7 202 667.8 202C640 202 612 207 584.2 212C556.3 217 528.7 222 500.8 219C473 216 445 205 417.2 206C389.3 207 361.7 220 333.8 225.5C306 231 278 229 250.2 224C222.3 219 194.7 211 166.8 206.5C139 202 111 201 83.2 199C55.3 197 27.7 194 13.8 192.5L0 191Z" fill="#6e255d"></path><path d="M0 247L13.8 241C27.7 235 55.3 223 83.2 222.5C111 222 139 233 166.8 243C194.7 253 222.3 262 250.2 261.5C278 261 306 251 333.8 248.5C361.7 246 389.3 251 417.2 252.5C445 254 473 252 500.8 253C528.7 254 556.3 258 584.2 257C612 256 640 250 667.8 248.5C695.7 247 723.3 250 751.2 247.5C779 245 807 237 834.8 240.5C862.7 244 890.3 259 918.2 268.5C946 278 974 282 1001.8 278C1029.7 274 1057.3 262 1085.2 262.5C1113 263 1141 276 1168.8 277.5C1196.7 279 1224.3 269 1252.2 263.5C1280 258 1308 257 1335.8 261C1363.7 265 1391.3 274 1419.2 278C1447 282 1475 281 1502.8 282.5C1530.7 284 1558.3 288 1586.2 286C1614 284 1642 276 1669.8 270C1697.7 264 1725.3 260 1753.2 258C1781 256 1809 256 1836.8 251.5C1864.7 247 1892.3 238 1906.2 233.5L1920 229L1920 215L1906.2 220C1892.3 225 1864.7 235 1836.8 240C1809 245 1781 245 1753.2 245C1725.3 245 1697.7 245 1669.8 252C1642 259 1614 273 1586.2 275C1558.3 277 1530.7 267 1502.8 260C1475 253 1447 249 1419.2 245C1391.3 241 1363.7 237 1335.8 233C1308 229 1280 225 1252.2 232.5C1224.3 240 1196.7 259 1168.8 258C1141 257 1113 236 1085.2 232C1057.3 228 1029.7 241 1001.8 249C974 257 946 260 918.2 253C890.3 246 862.7 229 834.8 221.5C807 214 779 216 751.2 217C723.3 218 695.7 218 667.8 224C640 230 612 242 584.2 247C556.3 252 528.7 250 500.8 244.5C473 239 445 230 417.2 228C389.3 226 361.7 231 333.8 238C306 245 278 254 250.2 251.5C222.3 249 194.7 235 166.8 224.5C139 214 111 207 83.2 207.5C55.3 208 27.7 216 13.8 220L0 224Z" fill="#75245e"></path><path d="M0 286L13.8 283.5C27.7 281 55.3 276 83.2 275.5C111 275 139 279 166.8 282.5C194.7 286 222.3 289 250.2 290.5C278 292 306 292 333.8 291.5C361.7 291 389.3 290 417.2 289C445 288 473 287 500.8 284C528.7 281 556.3 276 584.2 277.5C612 279 640 287 667.8 292C695.7 297 723.3 299 751.2 297C779 295 807 289 834.8 285C862.7 281 890.3 279 918.2 280C946 281 974 285 1001.8 286C1029.7 287 1057.3 285 1085.2 285C1113 285 1141 287 1168.8 285C1196.7 283 1224.3 277 1252.2 278C1280 279 1308 287 1335.8 289.5C1363.7 292 1391.3 289 1419.2 288C1447 287 1475 288 1502.8 289.5C1530.7 291 1558.3 293 1586.2 291.5C1614 290 1642 285 1669.8 281.5C1697.7 278 1725.3 276 1753.2 277C1781 278 1809 282 1836.8 284.5C1864.7 287 1892.3 288 1906.2 288.5L1920 289L1920 227L1906.2 231.5C1892.3 236 1864.7 245 1836.8 249.5C1809 254 1781 254 1753.2 256C1725.3 258 1697.7 262 1669.8 268C1642 274 1614 282 1586.2 284C1558.3 286 1530.7 282 1502.8 280.5C1475 279 1447 280 1419.2 276C1391.3 272 1363.7 263 1335.8 259C1308 255 1280 256 1252.2 261.5C1224.3 267 1196.7 277 1168.8 275.5C1141 274 1113 261 1085.2 260.5C1057.3 260 1029.7 272 1001.8 276C974 280 946 276 918.2 266.5C890.3 257 862.7 242 834.8 238.5C807 235 779 243 751.2 245.5C723.3 248 695.7 245 667.8 246.5C640 248 612 254 584.2 255C556.3 256 528.7 252 500.8 251C473 250 445 252 417.2 250.5C389.3 249 361.7 244 333.8 246.5C306 249 278 259 250.2 259.5C222.3 260 194.7 251 166.8 241C139 231 111 220 83.2 220.5C55.3 221 27.7 233 13.8 239L0 245Z" fill="#7c2360"></path><path d="M0 301L13.8 301C27.7 301 55.3 301 83.2 301C111 301 139 301 166.8 301C194.7 301 222.3 301 250.2 301C278 301 306 301 333.8 301C361.7 301 389.3 301 417.2 301C445 301 473 301 500.8 301C528.7 301 556.3 301 584.2 301C612 301 640 301 667.8 301C695.7 301 723.3 301 751.2 301C779 301 807 301 834.8 301C862.7 301 890.3 301 918.2 301C946 301 974 301 1001.8 301C1029.7 301 1057.3 301 1085.2 301C1113 301 1141 301 1168.8 301C1196.7 301 1224.3 301 1252.2 301C1280 301 1308 301 1335.8 301C1363.7 301 1391.3 301 1419.2 301C1447 301 1475 301 1502.8 301C1530.7 301 1558.3 301 1586.2 301C1614 301 1642 301 1669.8 301C1697.7 301 1725.3 301 1753.2 301C1781 301 1809 301 1836.8 301C1864.7 301 1892.3 301 1906.2 301L1920 301L1920 287L1906.2 286.5C1892.3 286 1864.7 285 1836.8 282.5C1809 280 1781 276 1753.2 275C1725.3 274 1697.7 276 1669.8 279.5C1642 283 1614 288 1586.2 289.5C1558.3 291 1530.7 289 1502.8 287.5C1475 286 1447 285 1419.2 286C1391.3 287 1363.7 290 1335.8 287.5C1308 285 1280 277 1252.2 276C1224.3 275 1196.7 281 1168.8 283C1141 285 1113 283 1085.2 283C1057.3 283 1029.7 285 1001.8 284C974 283 946 279 918.2 278C890.3 277 862.7 279 834.8 283C807 287 779 293 751.2 295C723.3 297 695.7 295 667.8 290C640 285 612 277 584.2 275.5C556.3 274 528.7 279 500.8 282C473 285 445 286 417.2 287C389.3 288 361.7 289 333.8 289.5C306 290 278 290 250.2 288.5C222.3 287 194.7 284 166.8 280.5C139 277 111 273 83.2 273.5C55.3 274 27.7 279 13.8 281.5L0 284Z" fill="#832161"></path></svg>