<svg id="visual" viewBox="0 0 1920 300" width="1920" height="300" xmlns="http://www.w3.org/2000/svg" xmlns:xlink="http://www.w3.org/1999/xlink" version="1.1"><rect x="0" y="0" width="1920" height="300" fill="#da4167"></rect><path d="M0 216L83 219L167 221L250 244L334 166L417 210L501 246L584 171L668 218L751 207L835 252L918 270L1002 231L1085 221L1169 283L1252 162L1336 155L1419 189L1503 246L1586 228L1670 268L1753 244L1837 241L1920 295L1920 0L1837 0L1753 0L1670 0L1586 0L1503 0L1419 0L1336 0L1252 0L1169 0L1085 0L1002 0L918 0L835 0L751 0L668 0L584 0L501 0L417 0L334 0L250 0L167 0L83 0L0 0Z" fill="#da4167"></path><path d="M0 219L83 167L167 274L250 150L334 139L417 259L501 207L584 157L668 178L751 139L835 246L918 168L1002 227L1085 195L1169 244L1252 155L1336 182L1419 250L1503 147L1586 142L1670 233L1753 169L1837 219L1920 145L1920 0L1837 0L1753 0L1670 0L1586 0L1503 0L1419 0L1336 0L1252 0L1169 0L1085 0L1002 0L918 0L835 0L751 0L668 0L584 0L501 0L417 0L334 0L250 0L167 0L83 0L0 0Z" fill="#d33d67"></path><path d="M0 250L83 245L167 171L250 184L334 214L417 131L501 177L584 223L668 228L751 225L835 247L918 245L1002 227L1085 246L1169 212L1252 163L1336 221L1419 238L1503 190L1586 253L1670 183L1753 172L1837 156L1920 187L1920 0L1837 0L1753 0L1670 0L1586 0L1503 0L1419 0L1336 0L1252 0L1169 0L1085 0L1002 0L918 0L835 0L751 0L668 0L584 0L501 0L417 0L334 0L250 0L167 0L83 0L0 0Z" fill="#cb3968"></path><path d="M0 218L83 179L167 214L250 207L334 186L417 175L501 202L584 230L668 137L751 185L835 183L918 205L1002 206L1085 128L1169 164L1252 195L1336 159L1419 176L1503 178L1586 116L1670 143L1753 218L1837 161L1920 148L1920 0L1837 0L1753 0L1670 0L1586 0L1503 0L1419 0L1336 0L1252 0L1169 0L1085 0L1002 0L918 0L835 0L751 0L668 0L584 0L501 0L417 0L334 0L250 0L167 0L83 0L0 0Z" fill="#c43668"></path><path d="M0 196L83 123L167 134L250 126L334 158L417 156L501 166L584 122L668 171L751 105L835 128L918 148L1002 186L1085 206L1169 152L1252 204L1336 175L1419 98L1503 156L1586 140L1670 178L1753 110L1837 181L1920 153L1920 0L1837 0L1753 0L1670 0L1586 0L1503 0L1419 0L1336 0L1252 0L1169 0L1085 0L1002 0L918 0L835 0L751 0L668 0L584 0L501 0L417 0L334 0L250 0L167 0L83 0L0 0Z" fill="#bc3268"></path><path d="M0 109L83 138L167 126L250 170L334 179L417 99L501 128L584 89L668 168L751 182L835 93L918 91L1002 154L1085 93L1169 110L1252 151L1336 183L1419 140L1503 147L1586 125L1670 111L1753 98L1837 165L1920 139L1920 0L1837 0L1753 0L1670 0L1586 0L1503 0L1419 0L1336 0L1252 0L1169 0L1085 0L1002 0L918 0L835 0L751 0L668 0L584 0L501 0L417 0L334 0L250 0L167 0L83 0L0 0Z" fill="#b42f67"></path><path d="M0 144L83 127L167 114L250 139L334 124L417 136L501 72L584 88L668 99L751 101L835 159L918 75L1002 150L1085 138L1169 71L1252 110L1336 151L1419 126L1503 119L1586 155L1670 133L1753 129L1837 92L1920 135L1920 0L1837 0L1753 0L1670 0L1586 0L1503 0L1419 0L1336 0L1252 0L1169 0L1085 0L1002 0L918 0L835 0L751 0L668 0L584 0L501 0L417 0L334 0L250 0L167 0L83 0L0 0Z" fill="#ac2d67"></path><path d="M0 71L83 120L167 111L250 111L334 117L417 116L501 123L584 62L668 75L751 130L835 125L918 106L1002 124L1085 135L1169 136L1252 82L1336 128L1419 122L1503 132L1586 65L1670 134L1753 113L1837 96L1920 125L1920 0L1837 0L1753 0L1670 0L1586 0L1503 0L1419 0L1336 0L1252 0L1169 0L1085 0L1002 0L918 0L835 0L751 0L668 0L584 0L501 0L417 0L334 0L250 0L167 0L83 0L0 0Z" fill="#a42a66"></path><path d="M0 47L83 113L167 108L250 93L334 74L417 73L501 58L584 107L668 106L751 102L835 47L918 60L1002 42L1085 113L1169 99L1252 58L1336 64L1419 91L1503 102L1586 97L1670 47L1753 94L1837 77L1920 49L1920 0L1837 0L1753 0L1670 0L1586 0L1503 0L1419 0L1336 0L1252 0L1169 0L1085 0L1002 0L918 0L835 0L751 0L668 0L584 0L501 0L417 0L334 0L250 0L167 0L83 0L0 0Z" fill="#9c2765"></path><path d="M0 69L83 66L167 48L250 33L334 80L417 86L501 38L584 59L668 34L751 49L835 47L918 41L1002 56L1085 91L1169 68L1252 80L1336 42L1419 33L1503 65L1586 59L1670 46L1753 31L1837 51L1920 79L1920 0L1837 0L1753 0L1670 0L1586 0L1503 0L1419 0L1336 0L1252 0L1169 0L1085 0L1002 0L918 0L835 0L751 0L668 0L584 0L501 0L417 0L334 0L250 0L167 0L83 0L0 0Z" fill="#942564"></path><path d="M0 51L83 21L167 14L250 49L334 20L417 45L501 45L584 37L668 35L751 17L835 58L918 66L1002 40L1085 52L1169 32L1252 41L1336 39L1419 55L1503 42L1586 66L1670 22L1753 65L1837 63L1920 53L1920 0L1837 0L1753 0L1670 0L1586 0L1503 0L1419 0L1336 0L1252 0L1169 0L1085 0L1002 0L918 0L835 0L751 0L668 0L584 0L501 0L417 0L334 0L250 0L167 0L83 0L0 0Z" fill="#8b2363"></path><path d="M0 9L83 38L167 38L250 4L334 26L417 4L501 13L584 9L668 19L751 9L835 38L918 40L1002 0L1085 40L1169 44L1252 38L1336 10L1419 36L1503 19L1586 44L1670 8L1753 18L1837 32L1920 40L1920 0L1837 0L1753 0L1670 0L1586 0L1503 0L1419 0L1336 0L1252 0L1169 0L1085 0L1002 0L918 0L835 0L751 0L668 0L584 0L501 0L417 0L334 0L250 0L167 0L83 0L0 0Z" fill="#832161"></path></svg>